<?xml version="1.0" encoding="UTF-8"?>
<svg viewBox="0 0 1996 1060" version="1.1" xmlns="http://www.w3.org/2000/svg" xmlns:xlink="http://www.w3.org/1999/xlink">
    <g id="Page-1" stroke="none" stroke-width="1" fill="none" fill-rule="evenodd">
        <g id="davejs-logo" fill-rule="nonzero">
            <g id="layer101" fill="#17244C">
                <path d="M339.333333,1052.5 C337.333333,1048.33333 335.666667,1043.5 335.666667,1042 C335.666667,1040.33333 334.666667,1038 333.666667,1036.83333 C330,1033.33333 331.166667,1011.33333 335.166667,1005.66667 C341.833333,996.333333 345.666667,988.166667 345.666667,983.666667 C345.666667,981 346.333333,978.333333 347,977.333333 C347.833333,976.5 349.333333,972.666667 350.5,968.666667 C351.833333,963.833333 355,959.166667 360.166667,954.5 C364.333333,950.666667 370.666667,944.333333 374.333333,940.5 C383.333333,931.166667 392,925.333333 398.833333,924.166667 C402,923.666667 405.833333,922.5 407.5,921.666667 C409.166667,920.666667 412.666667,920 415.5,920 C418.166667,920 427.5,916.666667 436.166667,912.5 C445,908.333333 452.833333,905 453.833333,905 C454.833333,905 455.666667,904.333333 455.666667,903.666667 C455.666667,902.833333 458.833333,901 462.833333,899.333333 C466.666667,897.833333 474.333333,894.333333 479.833333,891.666667 C496.666667,883.666667 506.166667,879.833333 513.666667,878.166667 C517.666667,877.333333 526.166667,874 532.666667,870.833333 C539,867.666667 545.666667,865 547.166667,865 C548.666667,865 550.666667,864.333333 551.5,863.666667 C552.5,862.833333 557,860.833333 561.5,859.166667 C569.166667,856.333333 586,848.5 631.5,826.666667 C655.5,815.166667 667.166667,810 669.166667,810 C670.166667,810 674.5,808.333333 678.833333,806.166667 C683,804 689.166667,801 692.333333,799.5 C715,789.166667 724.833333,784.166667 725.333333,783 C725.666667,782.333333 726.666667,781.666667 727.666667,781.666667 C728.5,781.666667 734.166667,779.5 740.166667,776.666667 C746,774 751.166667,771.666667 751.5,771.666667 C751.833333,771.666667 758.333333,768.833333 766,765.166667 C773.5,761.666667 782,758.333333 784.833333,757.666667 C787.5,757 792.666667,755 796.5,753.333333 C805.5,749.166667 811.5,748.5 811.5,751.5 C811.5,753.5 786.666667,768 771.5,775 C768.5,776.333333 768.666667,776.5 772.666667,776.5 C777.333333,776.666667 782.333333,774.833333 799.166667,766.5 C804.333333,764 811.166667,761.5 814.166667,760.833333 C817.333333,760.166667 820.666667,759 821.5,758.333333 C822.5,757.833333 828,755.5 834,753.333333 C840,751.166667 846.666667,748.5 849,747.5 C884.333333,730.166667 891.166667,726.166667 895,719.833333 C895.833333,718.333333 904,713.333333 913.166667,708.5 C922.333333,703.666667 930.666667,698.833333 931.5,698 C933.666667,695.666667 934.333333,695.5 904.833333,709.833333 C856.166667,733.333333 855,733.833333 856,729 C856.5,726 885.333333,710 890.166667,710 C891.166667,710 892.333333,709.333333 892.666667,708.666667 C893,707.833333 899.5,704.166667 907.333333,700.333333 C915.166667,696.5 926,691 931.5,687.833333 C937,684.833333 944.833333,681 949,679.166667 C974.166667,668.666667 981.5,665.333333 1021.5,645.833333 C1047.5,633.166667 1096.83333,610.333333 1113.33333,603.333333 C1117.16667,601.666667 1124.16667,598.5 1129.16667,596.166667 C1139.5,591.5 1167.66667,578.833333 1179.83333,573.333333 C1192.16667,568 1208.66667,560.333333 1219,555.166667 C1224,552.666667 1231.33333,549.666667 1235.33333,548.333333 C1239.16667,547.166667 1242.33333,545.5 1242.33333,544.833333 C1242.33333,544.166667 1245.16667,542.666667 1248.66667,541.5 C1252,540.333333 1261,536.666667 1268.66667,533 C1276.33333,529.5 1283.33333,526.666667 1284.33333,526.666667 C1285.16667,526.666667 1288,525.5 1290.33333,524.166667 C1292.83333,522.833333 1300.83333,519 1308.16667,515.666667 C1315.5,512.333333 1325.33333,507.833333 1330,505.666667 C1339.5,501.166667 1341.83333,500.833333 1342.66667,503.5 C1343.16667,505 1344.16667,505 1346.5,503.5 C1348.33333,502.5 1353,500.666667 1357,499.333333 C1362.5,497.5 1364,497.5 1364,499.166667 C1364,501.666667 1355.33333,507.333333 1338.66667,515.833333 C1331.5,519.5 1325.16667,523.666667 1324.66667,525.5 C1323.66667,528.5 1312.83333,534.166667 1298.33333,539 C1293.83333,540.5 1287.5,544 1284.5,546.666667 C1281.33333,549.5 1278.16667,551.666667 1277.16667,551.666667 C1276.33333,551.666667 1271.33333,554.333333 1266.33333,557.5 C1261.33333,560.666667 1256.83333,563.333333 1256.33333,563.333333 C1255.66667,563.333333 1241,570.333333 1223.33333,579 C1180,600.333333 1172.66667,603.5 1164.33333,605.166667 C1155.16667,607 1125,621.833333 1118,628 C1115.83333,630 1094.33333,640 1092.33333,640 C1090.16667,640 1066,649.833333 1052.83333,656 C1046.33333,659.166667 1040.16667,661.666667 1039.16667,661.666667 C1038.16667,661.666667 1034.33333,663.5 1030.66667,665.833333 C1027,668.166667 1023.5,670 1022.83333,670 C1022,670.166667 1012.5,674.666667 1001.5,680.166667 C990.5,685.666667 983,689.666667 984.833333,689.166667 C986.666667,688.5 991.5,687.333333 995.666667,686.5 C999.833333,685.666667 1005.16667,684.5 1007.83333,684 C1014,682.5 1013.5,685.333333 1007,688 C993.333333,693.666667 971.166667,706.666667 975.166667,706.666667 C977,706.666667 984,703.666667 1013.16667,690 C1018.66667,687.5 1027.66667,683.333333 1033.16667,680.833333 C1038.66667,678.333333 1055,670.333333 1069.5,663.166667 C1093.83333,651 1105.16667,647.166667 1103.66667,651.833333 C1103.33333,653 1098,656.5 1091.83333,659.666667 C1085.66667,662.833333 1080.83333,665.833333 1081.16667,666 C1081.83333,666.666667 1097.5,660.833333 1102,658.333333 C1103.5,657.5 1110.5,654.166667 1117.33333,651.166667 C1135.66667,642.666667 1150.66667,635.666667 1173.66667,624.833333 C1184.83333,619.333333 1195,615 1196.33333,615 C1197.66667,615 1200.83333,613.833333 1203.33333,612.5 C1206,611.166667 1209.16667,610 1210.33333,610 C1214,610 1212.5,614.333333 1208.16667,616.333333 C1205.83333,617.333333 1204,619.333333 1204,620.666667 C1204,624.166667 1200.83333,625.666667 1198.16667,623.333333 C1196.33333,621.833333 1195,622 1191.83333,624.5 C1189.66667,626.166667 1188.16667,628.333333 1188.5,629.166667 C1188.66667,630.166667 1184.16667,633.5 1178.16667,636.666667 C1172.16667,639.833333 1167.33333,643.166667 1167.33333,644 C1167.33333,647 1160.16667,651.5 1146.83333,656.833333 C1139.33333,659.833333 1130.5,664.333333 1127.33333,666.833333 C1124.16667,669.333333 1117.66667,673.333333 1113,675.666667 C1108.33333,678 1103.66667,681 1102.5,682.166667 C1100.66667,684.5 1097.66667,686 1074,695 C1066.16667,698.166667 1047.5,706.5 1032.66667,713.666667 C1017.66667,720.833333 1004.83333,726.666667 1004.33333,726.666667 C1002.83333,726.666667 951.166667,753 944.333333,757.333333 C941,759.333333 933.666667,762.833333 928.166667,765 C922.666667,767.166667 908.833333,773.5 897.333333,779 C885.833333,784.666667 873,790.5 868.833333,792.166667 C864.666667,793.833333 858.666667,797 855.666667,799.166667 C852.5,801.5 848.833333,803.333333 847.5,803.333333 C846.166667,803.333333 843.166667,805 840.833333,807.166667 C838.333333,809.333333 830.666667,813.5 823.666667,816.666667 C816.5,819.666667 809.833333,823.166667 808.833333,824.333333 C807.833333,825.666667 806.333333,826.666667 805.5,826.666667 C803.5,826.666667 741.833333,856.5 739,859 C737.666667,860.166667 730.833333,863.5 724,866.5 C717.166667,869.5 710.333333,873 709,874.166667 C707.666667,875.333333 698.333333,880.666667 688.166667,885.833333 C663.333333,898.833333 627.666667,917.166667 606.333333,928.166667 C591.166667,936 588.833333,937.666667 589.666667,940.666667 C590.333333,943.666667 587.833333,945.5 570.333333,954.166667 C556.666667,961 551.333333,964.333333 553.833333,964.666667 C555.666667,965 557.333333,966 557.333333,966.833333 C557.333333,967.666667 548.5,972.833333 537.5,978.166667 C516.833333,988.5 502.333333,997.166667 496.166667,1003.16667 C494,1005.16667 486.166667,1009.66667 478.666667,1013.16667 C456.166667,1023.83333 406.833333,1046.66667 406.333333,1046.66667 C406.166667,1046.66667 404.833333,1044 403.333333,1040.83333 C401.166667,1036.5 400,1035.5 397.666667,1036.33333 C392.833333,1038.5 380.5,1044.33333 363.5,1052.33333 C354.666667,1056.5 346.333333,1060 345.166667,1060 C344,1060 341.333333,1056.66667 339.333333,1052.5 Z" id="Path"></path>
                <path d="M1518.66667,965.833333 C1518.33333,965.333333 1513.5,964.166667 1508,963.166667 C1502.66667,962.166667 1494.83333,959.5 1490.66667,957 C1484.16667,953.333333 1471.16667,941.166667 1464.5,932.833333 C1460.5,927.833333 1455.66667,917.5 1455.66667,914.166667 C1455.66667,912.166667 1454.5,909.166667 1453.16667,907.333333 C1451.83333,905.666667 1450.66667,903 1450.66667,901.5 C1450.66667,900 1449.16667,897.5 1447.33333,895.833333 C1445.5,894.166667 1444,891.333333 1444,889.666667 C1444,887.833333 1443.33333,885.166667 1442.5,883.5 C1441.5,881.833333 1440.5,875.5 1440,869.5 C1439.66667,863.333333 1438.83333,857.666667 1438.33333,856.833333 C1437.66667,856 1438,854.833333 1438.83333,854.333333 C1439.66667,853.666667 1439.33333,851.166667 1438,848.333333 C1435.83333,844.333333 1435.83333,841.166667 1437.16667,831.333333 C1439.66667,813.333333 1442.33333,799.5 1443.83333,796.666667 C1444.66667,795.166667 1445.83333,791.5 1446.33333,788.333333 C1447.33333,783.166667 1449.66667,776.333333 1454.16667,765.833333 C1459.33333,753.166667 1461,748.666667 1461.5,745 C1461.83333,742.666667 1464.83333,735.5 1468.33333,729.166667 C1471.83333,722.666667 1475.33333,715.833333 1476.33333,713.833333 C1477.33333,711.666667 1478.66667,710 1479.5,710 C1480.16667,710 1480.66667,709.333333 1480.66667,708.333333 C1480.66667,705.5 1497.5,683.666667 1507.33333,673.833333 C1528.5,652.833333 1537.16667,645.5 1547.83333,640.333333 C1554,637.333333 1559.83333,634 1561,632.833333 C1564.16667,629.833333 1572.5,627 1595.16667,621.333333 C1606.33333,618.5 1615.16667,615.5 1614.66667,614.833333 C1612.83333,611.666667 1612,605.166667 1611.16667,586.666667 C1610.66667,576.166667 1609.66667,566.666667 1608.83333,565.666667 C1608,564.666667 1607,554.166667 1606.33333,542.333333 C1605.83333,530.5 1604.66667,518.166667 1604,515 C1603.16667,511.833333 1602,496 1601.5,480 C1600.83333,464 1599.83333,450.333333 1599.16667,449.666667 C1598.5,448.833333 1595,449.833333 1591.5,451.666667 C1584.83333,455.166667 1580.5,456 1561.5,457.5 C1533.33333,460 1515.33333,460.833333 1504.33333,460.333333 C1493.16667,459.833333 1492,459.333333 1490.5,455.5 C1489.66667,453.166667 1487.5,451 1485.66667,450.5 C1478,448.5 1484,439.5 1502,426.333333 C1506.5,422.833333 1510.83333,420 1511.5,420 C1512.83333,420 1531.16667,406.333333 1537,401 C1541.66667,396.666667 1555,380 1561.66667,369.833333 C1568.16667,360.166667 1579.83333,335.833333 1581.33333,328.833333 C1582,326 1583.66667,322.666667 1585,321.5 C1586.33333,320.5 1587.33333,317.666667 1587.33333,315.166667 C1587.33333,311.833333 1589,309.666667 1595,306 C1602.33333,301.333333 1603.16667,301.166667 1617,302.333333 C1629.5,303.333333 1632.33333,304.166667 1639.83333,309.166667 C1644.5,312.166667 1651.5,316 1655.5,317.666667 C1664.16667,321 1665.33333,323.5 1664.66667,334.833333 C1663.83333,346.666667 1666.16667,344.166667 1667.33333,332 C1668.16667,322.666667 1668.33333,322.5 1673.16667,322.5 C1678,322.5 1678.16667,322.666667 1677.83333,330.333333 C1677.66667,337.333333 1675.16667,346.5 1670.5,357.5 C1668.66667,362 1666.66667,384 1667.16667,394.166667 C1667.33333,398.833333 1669.5,419.333333 1671.66667,440 C1676.33333,481 1676.83333,487.166667 1678.16667,524.166667 C1678.66667,538 1679.33333,554.833333 1679.83333,561.666667 C1680.16667,569.333333 1679.83333,574.5 1678.66667,575.166667 C1677.5,575.833333 1677.83333,577.666667 1679.66667,580.333333 C1681.16667,582.666667 1682,585.833333 1681.33333,587.333333 C1680,590.666667 1682.83333,590.833333 1685.66667,587.5 C1686.83333,586.166667 1689.16667,585 1690.83333,585 C1692.66667,585 1694,584.333333 1694,583.333333 C1694,581.666667 1714.83333,571.166667 1722.33333,569 C1724.66667,568.5 1729.5,566.666667 1733.16667,565 C1736.83333,563.333333 1746.16667,559.666667 1754,556.666667 C1761.83333,553.666667 1771.5,549.333333 1775.66667,546.833333 C1779.83333,544.5 1785.16667,541.333333 1787.5,540 C1796.33333,534.833333 1802.83333,530.666667 1812.5,523.833333 C1817.83333,519.833333 1822.66667,516.666667 1823,516.666667 C1823.5,516.666667 1825.83333,514.833333 1828.33333,512.5 C1830.66667,510.333333 1833.16667,508.666667 1833.83333,508.833333 C1835,509.166667 1838.66667,506.166667 1853,493.5 C1877.66667,471.5 1902.33333,442.833333 1902.33333,435.833333 C1902.33333,432.166667 1891.66667,431 1882.66667,433.5 C1872.5,436.5 1833.16667,436.5 1819.83333,433.666667 C1799,429 1787,425 1782.16667,420.833333 C1779.33333,418.5 1776.33333,416.666667 1775.5,416.666667 C1774.5,416.666667 1770.16667,413.166667 1765.5,408.833333 C1755.16667,399.166667 1751.66667,388.666667 1752,368.666667 C1752.16667,350.166667 1760.33333,319.5 1769.16667,302.833333 C1770.16667,301.166667 1772.5,296.666667 1774.5,292.833333 C1786,270.166667 1803.66667,248.5 1825.33333,230 C1834.83333,222 1836,221.333333 1847.33333,218.333333 C1854.16667,216.5 1867.83333,210.5 1886.5,201.333333 C1890.16667,199.5 1894.33333,196.5 1896,194.833333 C1897.66667,192.833333 1900.83333,191.666667 1904.66667,191.666667 C1907.83333,191.666667 1910.83333,191 1911.33333,190.333333 C1912.33333,188.5 1924.33333,189.166667 1928,191.166667 C1932.5,193.666667 1929.5,197.833333 1919.33333,203.666667 C1914.16667,206.5 1911,209.333333 1912.16667,209.666667 C1913.33333,210 1915.16667,209.5 1916.16667,208.5 C1917.16667,207.5 1919,206.666667 1920.16667,206.666667 C1923.33333,206.666667 1922.83333,211.166667 1919.5,212.333333 C1914.16667,214.166667 1900,223 1899.33333,224.833333 C1899,225.833333 1899.83333,226.166667 1901.33333,225.666667 C1903,225 1904,225.5 1904,227.166667 C1904,231.666667 1909.16667,231.833333 1915,227.5 C1918.16667,225.166667 1920.66667,222.5 1920.66667,221.5 C1920.66667,220.666667 1922.83333,220 1925.66667,220 C1928.83333,220 1931.16667,218.833333 1932.33333,216.666667 C1934.16667,213.166667 1948.66667,205.5 1955.16667,204.5 C1957,204.166667 1959.83333,203 1961.33333,201.666667 C1963.33333,200.166667 1964.66667,200 1965.83333,201.166667 C1967,202.333333 1969.5,202.5 1972.5,201.666667 C1977.66667,200.166667 1980.66667,202.333333 1977.66667,205.333333 C1976.66667,206.333333 1976.16667,208 1976.66667,209 C1977,210 1968.66667,216.5 1958,223.333333 C1947.33333,230.166667 1935.33333,238.333333 1931.33333,241.333333 C1927.5,244.166667 1922.66667,246.666667 1920.83333,246.666667 C1918.83333,246.666667 1917.33333,247.5 1917.33333,248.333333 C1917.33333,249.333333 1916.16667,250 1914.83333,250 C1913.5,250 1910.83333,251.5 1908.83333,253.5 C1907,255.333333 1903.83333,257.166667 1901.83333,257.5 C1898,258.333333 1884.5,272.333333 1877.83333,282.5 C1875.5,286.166667 1871.83333,291.166667 1869.83333,293.666667 C1867.66667,296.166667 1862.83333,304.5 1859,312.333333 C1855.16667,320.166667 1851.33333,326.666667 1850.5,326.666667 C1849.66667,326.666667 1849,328.5 1849,330.833333 C1849,335 1845.83333,337.5 1842.16667,336.333333 C1840.83333,335.833333 1840.83333,335 1842.5,333.333333 C1843.83333,332 1846.66667,325.166667 1848.83333,318.333333 C1851.16667,311.5 1854.66667,303.5 1856.83333,300.666667 C1859,297.833333 1860.66667,295 1860.66667,294.333333 C1860.66667,293.833333 1863.33333,289.5 1866.66667,284.833333 C1869.83333,280.166667 1872.16667,275.833333 1871.5,275.333333 C1870.33333,274.166667 1867.16667,277.833333 1857.83333,291.666667 C1854.33333,296.666667 1851,301 1850.33333,301.333333 C1849.5,301.666667 1849,302.833333 1849,304 C1849,305.166667 1847.5,307.5 1845.66667,309.166667 C1843.83333,310.833333 1842.83333,312.833333 1843.33333,313.666667 C1844.33333,315.166667 1840,326.5 1834.66667,337 C1831.83333,342.333333 1829.16667,362.5 1828.83333,380.166667 C1828.66667,396.333333 1830.16667,398.333333 1842.83333,398.333333 C1848,398.333333 1852.33333,399 1852.66667,399.833333 C1853.16667,401.5 1857,400.833333 1878.16667,395.833333 C1900,390.666667 1903.66667,390.166667 1918.5,390.666667 C1932.5,391.166667 1941.33333,393.666667 1953.16667,400.333333 C1955,401.5 1958.33333,403.166667 1960.83333,404.5 C1963.16667,405.666667 1966.83333,408.5 1969,410.833333 C1972,414 1974.5,415 1980.16667,415 C1985.66667,415 1988.5,416 1991.5,419.166667 C1996.33333,423.833333 1997.16667,429.333333 1993,427.666667 C1991.5,427.166667 1988.5,426.166667 1986.33333,425.666667 C1982.66667,424.666667 1982.33333,425.166667 1982.33333,430.166667 C1982.33333,441.5 1972.66667,466 1964.66667,475.166667 C1963.33333,476.5 1962.33333,478.666667 1962.33333,479.666667 C1962.33333,480.833333 1961.66667,481.666667 1960.83333,481.666667 C1960,481.666667 1958.83333,483 1958.16667,484.666667 C1956.5,490.5 1930,516.333333 1923.16667,519.333333 C1916,522.333333 1916,522.333333 1891.5,546.333333 C1882.33333,555.333333 1871,565.166667 1866.5,568.333333 C1861.83333,571.5 1857.83333,574.666667 1857.66667,575.333333 C1856.83333,577.333333 1845.83333,581.666667 1841.5,581.666667 C1839.33333,581.666667 1837.33333,582.666667 1836.83333,584 C1835.66667,586.833333 1815.83333,596.666667 1811,596.666667 C1809.16667,596.666667 1807,597.5 1806.5,598.333333 C1806,599.333333 1804.16667,600 1802.66667,600 C1801.16667,600 1797.83333,601 1795.33333,602.333333 C1793,603.666667 1788.33333,605.5 1785,606.666667 C1781.66667,607.666667 1779,609.333333 1779,610.166667 C1779,611 1777,611.666667 1774.66667,611.666667 C1771.33333,611.666667 1770.66667,612.333333 1771.5,614.833333 C1772.83333,619 1768,620.833333 1765.83333,617 C1764.16667,614.333333 1764.16667,614.333333 1764,617.166667 C1764,618.666667 1762.66667,620 1761.16667,620 C1755.66667,620.166667 1746.5,625.833333 1747,628.666667 C1747.16667,630.333333 1745.66667,632 1742.83333,633 C1740.16667,634 1736.33333,636 1734.33333,637.833333 C1732.16667,639.5 1728.33333,642.333333 1726,644.333333 C1723.5,646.333333 1719.33333,649 1716.5,650.5 C1713.83333,651.833333 1710,654.833333 1708.16667,657 C1706.33333,659.166667 1702.83333,662.333333 1700.5,664.166667 C1698.33333,666 1695.5,669.833333 1694.33333,672.5 C1691.66667,679.333333 1690.16667,716.166667 1692.5,717.666667 C1693.83333,718.333333 1693.66667,719.166667 1692.33333,720 C1690.16667,721.333333 1688.33333,770 1690.5,770 C1692.83333,770 1689.33333,803.666667 1686.5,808.333333 C1684.16667,812.166667 1682.33333,809.666667 1682.33333,802.5 C1682.33333,797 1681.66667,795 1679.83333,795 C1678,795 1677.33333,793 1677.33333,787.5 C1677.33333,783.333333 1676.5,780 1675.5,780 C1674.33333,780 1674.16667,786.5 1674.83333,800.166667 C1676.33333,827.166667 1672,858 1668.5,845 C1666.66667,837.833333 1664,841.833333 1664,852.166667 C1664,864.5 1662.66667,870 1660,870 C1657,870 1650.66667,877.333333 1650.66667,880.666667 C1650.66667,887.5 1634.83333,910.833333 1620.16667,925.666667 C1615.83333,930 1612.5,934.166667 1613.16667,934.666667 C1613.66667,935.166667 1615,934.666667 1616,933.666667 C1618.5,931.166667 1623.5,931 1624.83333,933.333333 C1626.33333,935.833333 1624.16667,941.666667 1621.83333,941.666667 C1620.66667,941.666667 1616.83333,943.666667 1613.16667,946.166667 C1606.66667,950.666667 1593,954.666667 1583.16667,954.833333 C1580.5,955 1574.5,956.833333 1569.83333,959 C1565.33333,961.166667 1558.83333,963.666667 1555.5,964.833333 C1549.66667,966.666667 1520.33333,967.5 1518.66667,965.833333 Z M1542.16667,921.5 C1545.83333,919.833333 1549.33333,917.666667 1549.83333,916.666667 C1550.33333,915.833333 1552.33333,915 1554.16667,915 C1555.83333,915 1557.33333,914.333333 1557.33333,913.333333 C1557.33333,912.5 1559,911.333333 1561.16667,910.833333 C1567.83333,909.166667 1600.66667,873.166667 1605.5,862.166667 C1606.5,860.166667 1609.16667,855.333333 1611.83333,851.333333 C1617.83333,842 1627.33333,823 1627.33333,820.5 C1627.33333,819.5 1628.33333,818.166667 1629.5,817.666667 C1630.5,817.166667 1629.5,817.166667 1627,817.666667 C1621.83333,818.833333 1620.83333,816 1624.16667,809.833333 C1626.66667,805 1626,778 1623.16667,773.333333 C1622.5,772.333333 1621.66667,752.833333 1621.16667,730.333333 C1620.83333,707.666667 1620.16667,686.166667 1619.83333,682.5 C1619.66667,678.833333 1619.33333,674.833333 1619.16667,673.666667 C1618.66667,667.666667 1593.66667,690.5 1573.5,715.333333 C1566.5,723.833333 1559.33333,732.5 1557.33333,734.666667 C1555.5,736.666667 1554,739 1554,739.666667 C1554,740.333333 1552.5,742.666667 1550.66667,745 C1548.83333,747.333333 1547.33333,750 1547.33333,751 C1547.33333,752.166667 1544.33333,758 1540.66667,764 C1537,770 1534,775.5 1534,776.166667 C1534,776.833333 1532.66667,780.333333 1530.83333,784 C1527,792.666667 1521.5,812.5 1519,827.166667 C1517.33333,836.333333 1516.5,838.333333 1513.83333,838.333333 C1511.16667,838.333333 1510.83333,837.5 1511.66667,833.833333 C1512.33333,831.5 1513,827.833333 1513.16667,826 C1513.66667,820.166667 1516,815 1517.83333,815 C1519.16667,815 1519,814.333333 1517.83333,813.166667 C1515.66667,811 1516.66667,803.166667 1520.16667,796.666667 C1521.33333,794.333333 1522.33333,791.5 1522.33333,790.333333 C1522.33333,789.166667 1523,787 1523.83333,785.333333 C1524.5,783.833333 1526.5,779.5 1528,775.833333 C1529.66667,772.166667 1532,767 1533.33333,764.5 C1534.66667,761.833333 1535.66667,759 1535.66667,758.166667 C1535.66667,757.333333 1538.33333,752.666667 1541.5,747.833333 C1544.66667,743.166667 1547.33333,738.333333 1547.33333,737.166667 C1547.33333,736.166667 1547.83333,735 1548.66667,734.666667 C1549.33333,734.5 1552.33333,730.5 1555.5,725.833333 C1558.66667,721.333333 1563.16667,715.666667 1565.33333,713.333333 C1570.83333,707.666667 1572.66667,703.833333 1570.66667,702.5 C1569.83333,702 1569,702.166667 1569,703.166667 C1569,704 1564.66667,709.833333 1559.33333,716.166667 C1554.16667,722.333333 1548.83333,729.5 1547.5,731.833333 C1546.33333,734.166667 1543.5,738.333333 1541.33333,740.833333 C1539.16667,743.333333 1537.33333,746.166667 1537.33333,747.166667 C1537.33333,748 1535.16667,751.5 1532.66667,754.833333 C1530,758.166667 1526.66667,763.5 1525.16667,766.666667 C1523.5,769.833333 1521.66667,773.666667 1520.83333,775 C1520,776.333333 1517.66667,783.166667 1515.66667,790 C1513.5,796.833333 1511.16667,803.166667 1510.33333,804 C1509.66667,805 1509,808.166667 1509,811.166667 C1509,814.333333 1508,818.833333 1506.66667,821.333333 C1505.5,823.833333 1503.83333,830.666667 1503.16667,836.666667 C1502.5,842.666667 1501.16667,848.5 1500.16667,849.666667 C1497,853.666667 1498.5,891.666667 1502.16667,900.833333 C1503,902.666667 1504.66667,907.5 1506,911.666667 C1508,917.833333 1509.66667,919.833333 1515.83333,923 C1524.16667,927.166667 1531.16667,926.833333 1542.16667,921.5 Z" id="Shape"></path>
                <path d="M131.5,893.5 C129.666667,892.666667 122.333333,891.666667 115.333333,891 C108.166667,890.333333 99.1666667,888.833333 95.1666667,887.666667 C75.6666667,881.833333 46.6666667,859 38.5,843.166667 C30.8333333,828.333333 29.6666667,826.666667 23.3333333,820.166667 C20,816.833333 17.3333333,813 17.3333333,811.666667 C17.3333333,810.333333 15.8333333,807.333333 14,805 C12.1666667,802.666667 10.6666667,799.166667 10.6666667,797 C10.6666667,794.833333 10,791.833333 9,790.166667 C8.16666667,788.5 7.16666667,783.5 6.83333333,779 C6.5,774.5 4.66666667,767.5 2.83333333,763.333333 C5.55111512e-17,756.833333 -0.333333333,754 0.666666667,742.5 C2.5,722.666667 5.33333333,706 8.16666667,698 C9.5,694 10.6666667,689.333333 10.6666667,687.5 C10.6666667,685.5 11.3333333,683.333333 12,682.5 C12.8333333,681.5 14.8333333,676.166667 16.5,670.5 C18.1666667,664.666667 20.1666667,660 21,660 C21.6666667,660 22.3333333,657.833333 22.3333333,655.166667 C22.3333333,652.5 23.3333333,650 24.5,649.5 C26,649 26,648.166667 24.6666667,646.833333 C23.1666667,645.333333 24,642.5 27.3333333,635.833333 C29.8333333,631 32.3333333,625.666667 32.8333333,623.833333 C33.5,622.166667 35.8333333,617.833333 38.1666667,614.166667 C40.5,610.5 42.8333333,606.166667 43.5,604.666667 C44,603 45,601.666667 45.8333333,601.666667 C46.6666667,601.666667 47.3333333,600.666667 47.3333333,599.666667 C47.3333333,598.5 51.5,592 56.5,585.333333 C61.5,578.666667 65.6666667,572.833333 65.6666667,572.5 C65.6666667,571.5 88.8333333,549.166667 104.166667,535 C115,525 121,521.166667 139.833333,512 C143.5,510.166667 148.333333,507.166667 150.5,505.166667 C152.666667,503.333333 155.666667,501.666667 157.166667,501.666667 C158.666667,501.666667 162.166667,500.166667 164.833333,498.333333 C167.666667,496.5 172.166667,495 175.166667,495 C178,495 181,494.333333 181.5,493.333333 C182,492.5 184.166667,491.666667 186.166667,491.666667 C189.833333,491.666667 209,485.833333 214.333333,483.166667 C216,482.333333 222.5,481.666667 229,481.666667 C235.333333,481.666667 240.666667,481 240.666667,480.333333 C240.666667,479.166667 245.333333,477.333333 257,474 C258.333333,473.666667 258.666667,472 258.166667,469.5 C257.666667,467.5 258,463.666667 258.833333,461.166667 C259.833333,458.5 260,456.666667 259,456.666667 C258,456.666667 257.666667,448.666667 258,437.166667 C258.5,413.5 255.333333,336 253.5,327.5 C253,325.666667 252.166667,315.166667 251.5,304.166667 C250.833333,293.166667 249.833333,282.666667 249.5,280.833333 C248.166667,275.833333 248,190 249.166667,183.333333 C250.666667,176 253,138.166667 252.5,128.666667 C252.333333,124.666667 252.833333,120.5 253.5,119.5 C254.166667,118.333333 255,111.833333 255.333333,105 C255.5,98.1666667 256.333333,90.3333333 257,87.5 C257.833333,84.8333333 257.833333,79.5 257.166667,75.8333333 C256,68.8333333 256.833333,58.6666667 259,55.8333333 C259.666667,55 260.666667,50.8333333 261.333333,46.8333333 C262,42.6666667 263.666667,35.8333333 265.166667,31.3333333 C266.5,27 267.333333,22.1666667 266.666667,20.8333333 C266.166667,19.1666667 266.833333,17.8333333 268.666667,17.1666667 C272.666667,15.6666667 275.5,11.5 275.666667,7.16666667 C275.666667,4 279.833333,0 283.166667,0 C283.833333,0 284,4.16666667 283.666667,9.16666667 C283.166667,18.5 283.666667,19.6666667 286.666667,16.6666667 C289.833333,13.5 292.166667,18.8333333 293.333333,31.5 C294.333333,42 295,43.8333333 298.5,45.5 C301.166667,46.6666667 302,48.1666667 301.5,50.1666667 C301,51.6666667 301.666667,56 303,59.8333333 C304.666667,64.6666667 304.833333,68.6666667 303.833333,73 C301.833333,81.3333333 301.833333,80.8333333 306.333333,83 C310.5,84.8333333 314.833333,95.5 312.833333,98.8333333 C311,101.833333 312.5,130.833333 314.833333,139.166667 C316.166667,143.833333 317,151.166667 316.666667,155.833333 C316.166667,161.833333 316.833333,165.166667 319,167.833333 C321.333333,171 321.833333,175.833333 322.166667,200.333333 C322.5,236 323,242 327.333333,270 C329.166667,282.333333 330.833333,295.333333 331,298.833333 C331.166667,302.166667 331.833333,305 332.5,305 C335,305 336.666667,312.333333 338.166667,330 C338.833333,336 339.833333,342.333333 340.666667,344.166667 C342.5,348.666667 345.666667,380 346.333333,401.333333 C346.666667,410.833333 347.333333,419 348,419.5 C348.5,420.166667 349,433.666667 349,449.5 C349,480 351.166667,500.333333 355,505.833333 C357.5,509.333333 358,514.333333 356,515.333333 C355.333333,515.666667 356,519.166667 357.5,523.333333 L360.5,530.833333 L360.5,523.833333 C360.666667,519.333333 361.5,516.666667 362.833333,516.666667 C364.166667,516.666667 364.166667,516.166667 362.5,515.166667 C360.333333,513.833333 359.833333,509.5 359,490 C358.833333,487.666667 358.833333,481.333333 359,475.833333 C359.166667,470.333333 358,449.333333 356.5,429.166667 C355,409 353.5,387.666667 353.166667,381.833333 C352.833333,376 352.166667,366.833333 351.666667,361.333333 C350.833333,349.666667 351.666667,346.666667 355.666667,346.666667 C358,346.666667 358.833333,348.833333 360,357.166667 C360.833333,362.833333 361.333333,369 361.166667,370.833333 C361,373.666667 362.5,391.5 366.666667,439.166667 C367.666667,449.166667 368.166667,488.333333 367.666667,507.5 C367.666667,513 367.5,523.5 367.666667,530.666667 C367.833333,541.666667 367.333333,544.333333 364.833333,546.166667 C362.166667,548 361.333333,547.833333 358.666667,545.5 C357,544 355.666667,541.5 355.666667,539.833333 C355.666667,538.166667 355,536.333333 354,535.833333 C353.166667,535.333333 352.333333,536.166667 352.333333,537.833333 C352.333333,539.666667 351.5,541.833333 350.5,542.833333 C349.166667,544.166667 349.166667,545.666667 350.333333,547.833333 C352.166667,551.166667 351.833333,606.666667 350.166667,611.666667 C349.666667,613 348.833333,620.5 348.333333,628.333333 C347.833333,636.166667 347,645.5 346.5,649.166667 C346,652.833333 345.166667,660.666667 344.833333,666.666667 C343.333333,684.333333 342,692.333333 340.166667,694.666667 C338.5,696.833333 337.166667,705.666667 337.166667,714.166667 C337.166667,715.833333 336.5,718.166667 335.833333,719.166667 C335,720 333.833333,723.833333 333.166667,727.5 C332.5,731.166667 330.666667,737 328.833333,740.666667 C327.166667,744.333333 325.666667,748.166667 325.666667,749.333333 C325.666667,750.333333 324.5,752.166667 323.166667,753.333333 C321.833333,754.333333 320.833333,755.833333 321,756.333333 C321.5,758.833333 314,773.166667 311.666667,774.5 C308.333333,776.333333 293.666667,805 296,805 C296.833333,805 295.666667,807.333333 293.333333,810.166667 C291,813 289,815.833333 289,816.333333 C289,817 286.166667,820.5 282.833333,824.166667 C275.5,832.333333 269,840.833333 269,842.166667 C269,844.833333 273.5,841.166667 275.333333,837 C276.333333,834.5 280.666667,829 285,825 C296.833333,813.333333 324.833333,769.166667 326.166667,759.666667 C326.5,758.166667 328,755.333333 329.833333,753.333333 C331.5,751.5 332.166667,750 331.5,750 C330.833333,750 331.333333,748.666667 332.666667,747.166667 C334.166667,745.5 335.833333,741.5 336.5,738.333333 C337.166667,735.166667 338.333333,731.833333 339,730.833333 C340.666667,728.5 345.166667,713.833333 346.666667,705.833333 C347.333333,702.166667 348.833333,697.666667 350.166667,695.666667 C351.333333,693.833333 352,691.833333 351.5,691.333333 C351,690.833333 351.666667,682.333333 353,672.333333 C354.333333,662.333333 356,648.166667 356.666667,640.833333 C357.166667,633.5 358.5,626.666667 359.333333,625.5 C360.333333,624.333333 360.333333,621.5 359.333333,617.833333 C358.5,614.666667 358.166667,611.333333 358.833333,610.333333 C359.5,609.333333 360.166667,595.833333 360.333333,580.5 C360.666667,565.166667 361.5,551.833333 362.333333,551 C363.166667,550.166667 365,550 366.333333,550.5 C368.5,551.333333 368.833333,556.166667 368,586 C367.5,605.166667 366.5,621.5 365.666667,622.5 C364.666667,623.666667 364.833333,625.166667 366,626.333333 C367.5,627.833333 367.5,629.666667 366.166667,633.833333 C365,636.666667 363.666667,647.333333 363.166667,657.333333 C362.666667,667.333333 361.5,676.833333 360.5,678.5 C359.666667,680.166667 359,683.666667 359,686.5 C359,689.166667 358.166667,692 357.333333,692.5 C356.333333,693.166667 356,694.333333 356.666667,695.166667 C357.666667,696.833333 353.166667,719.666667 350.666667,725.833333 C349.833333,727.666667 347.666667,734.5 345.5,740.833333 C343.5,747.333333 341,753.666667 339.833333,755 C337.333333,758.333333 332.333333,769.166667 332.333333,771.666667 C332.333333,772.666667 330.5,776.333333 328.166667,779.666667 C325.833333,783 324,786.5 324,787.166667 C324,788 321.833333,791.5 319,795 C316.333333,798.5 314,801.666667 314,802.166667 C314,804.166667 305.333333,815.833333 296.833333,825.5 C292.166667,831 285.5,838.333333 282.333333,842 C278.5,846.333333 276.666667,850 277,852.5 C277.5,855.5 276,857.333333 271.166667,860.5 C262.333333,866 251.5,870 245.666667,870 C242.833333,870 240.666667,870.666667 240.666667,871.333333 C240.666667,872 236.333333,874.5 231.166667,877 C216.333333,883.666667 215.666667,883.833333 215.666667,879.333333 C215.666667,875.666667 215.166667,875.5 210,876.666667 C206.833333,877.333333 202.166667,879.5 199.833333,881.5 C197.333333,883.333333 192.666667,885.333333 189.166667,886 C185.833333,886.666667 181.333333,888 179,889.166667 C176.666667,890.333333 166.666667,892.166667 156.5,893.166667 C135.666667,895.333333 136,895.333333 131.5,893.5 Z M151.166667,843.333333 C153.5,841.5 156.166667,840 157.166667,840 C159.333333,840 164.666667,837.166667 170.5,833 C172.666667,831.333333 175.833333,830 177.5,830 C179.333333,830 180.666667,829.333333 180.666667,828.5 C180.666667,827.666667 182.833333,826.166667 185.333333,825.166667 C190.166667,823.166667 217.333333,798 217.333333,795.5 C217.333333,794.666667 220.5,790.666667 224.5,786.333333 C233.833333,776 235.666667,773.833333 235.666667,772 C235.666667,771.166667 237.166667,769.166667 239,767.5 C240.833333,765.833333 242.333333,763.833333 242.333333,763 C242.333333,762.166667 244.166667,758.666667 246.5,755.166667 C248.666667,751.5 251,746.666667 251.666667,744.333333 C252.166667,742 253.166667,740 253.833333,740 C254.333333,740 255,735.666667 255.333333,730.333333 C255.5,725.166667 256.833333,717.166667 258,712.5 C262.333333,697.333333 262.666667,691 260,683.166667 C258.5,679.166667 257.333333,673.5 257.333333,670.666667 C257.333333,667.833333 256.166667,663 254.666667,660.166667 C253.166667,657.166667 251.333333,650.5 250.666667,645.333333 C250,640 248.5,633.666667 247.5,630.833333 C246.166667,627.666667 245.833333,622.333333 246.5,616.666667 C247,611.666667 246.666667,603.833333 245.666667,599.166667 C244.5,594.666667 242.833333,584.5 241.666667,576.666667 C240.5,568.833333 239,561.333333 238.166667,560 C237.333333,558.666667 236.5,555 236.333333,552 C236.166667,545.166667 235.166667,544.333333 230.333333,546.833333 C225.666667,549.333333 207.5,564.833333 197.666667,575 C191.666667,581.166667 170.333333,605.833333 165.333333,612.5 C154.5,626.833333 147.666667,636.833333 145.833333,640.833333 C141.166667,651 136.833333,659.166667 134.666667,661.833333 C133.333333,663.166667 132.333333,665.333333 132.333333,666.333333 C132.333333,667.5 131.666667,669.666667 130.666667,671.333333 C126.666667,678.5 122.333333,690.166667 122.333333,693.666667 C122.333333,695.833333 121.666667,698.333333 120.833333,699.166667 C120,700.166667 119,703.833333 118.333333,707.5 C116.666667,720 112.5,744 111.666667,746.166667 C111.166667,747.333333 109.666667,748.333333 108.333333,748.333333 C104.5,748.333333 106.666667,725.166667 110.833333,721.5 C113.333333,719.166667 113.5,718.5 111.666667,717.833333 C109.166667,716.833333 109.5,705.666667 112.333333,699.166667 C113.166667,697.333333 115,691.666667 116.5,686.666667 C118.166667,681.666667 120.5,674.833333 121.833333,671.666667 C123.166667,668.5 125,664.333333 125.666667,662.5 C128.5,655.333333 130.833333,650.5 134.666667,644.166667 C137,640.5 140.333333,634.5 142,630.833333 C143.666667,627.166667 146.333333,623.166667 147.833333,621.833333 C149.5,620.666667 150.666667,618.666667 150.666667,617.5 C150.666667,616.333333 151.833333,615 153.166667,614.333333 C154.5,613.833333 155.666667,612.5 155.666667,611.333333 C155.666667,610 158,606.666667 160.666667,603.666667 C163.5,600.666667 165.666667,597.666667 165.666667,597 C165.666667,596.333333 167.166667,594.833333 169,593.666667 C172.166667,591.833333 173.833333,585 171.166667,585 C170.333333,585 167.333333,588.5 164.166667,592.5 C161.166667,596.666667 156,602.833333 152.833333,606.333333 C149.666667,609.666667 145.833333,614.833333 144.5,617.5 C143.166667,620.333333 139,626.333333 135.5,631.166667 C131.833333,636 129,640.833333 129,642 C129,643.166667 127.333333,645.833333 125.166667,647.666667 C123.166667,649.666667 119.166667,655.833333 116.5,661.5 C113.666667,667 111,671.666667 110.5,671.666667 C109.833333,671.666667 109,675.166667 108.333333,679.333333 C107.833333,683.666667 106.666667,688 106,689 C105.166667,690 103.666667,694.166667 102.5,698.333333 C101.333333,702.5 99.6666667,707.166667 98.8333333,708.833333 C98,710.333333 97.6666667,713.5 98.3333333,715.5 C98.8333333,717.666667 97.8333333,723.666667 96,728.666667 C94.1666667,733.833333 93.1666667,739.833333 93.5,742.333333 C94,744.666667 93.6666667,746.666667 92.6666667,746.666667 C90.6666667,746.666667 90.8333333,752 92.8333333,753.5 C93.6666667,754 93,758.166667 91.5,762.666667 C88.6666667,771 88.8333333,775.666667 92.5,797.5 C94.1666667,807 96,812.833333 99.1666667,818.333333 C100,819.666667 102.5,825 105,830.166667 C108.666667,837.833333 110.666667,840 117.166667,843 C127.666667,847.833333 145,848.166667 151.166667,843.333333 Z" id="Shape"></path>
                <path d="M514.833333,734.333333 C513,733 508.333333,731.666667 504.666667,731.666667 C500.833333,731.666667 494.833333,730.5 491.333333,729 C475.166667,722.333333 454.833333,699.666667 448,681 C442.833333,666.5 437.5,655.5 434.666667,653.166667 C433.333333,652.166667 432.333333,649.5 432.333333,647.166667 C432.333333,645 431.333333,641.166667 430,638.666667 C428.666667,636.166667 427.333333,627 426.833333,618.333333 C426.333333,609.666667 424.833333,599.166667 423.333333,595.333333 C421.5,590.166667 421.166667,587.166667 422.333333,585 C423.333333,583.333333 424,579 424,575.5 C424.166667,570 427.666667,547.666667 432.166667,525.833333 C433.5,518.333333 437,507.333333 439.166667,503 C440,501.333333 440.666667,499.166667 440.666667,498 C440.666667,496.833333 441.833333,493.666667 443.166667,491 C444.5,488.5 446,482.833333 446.5,478.666667 C446.833333,474.5 448.166667,468.666667 449.5,466 C450.833333,463.166667 453,458.666667 454.166667,455.833333 C455.333333,453.166667 457.166667,449.666667 458.333333,448.333333 C459.333333,447 460.666667,444 461.166667,441.666667 C462.333333,436.666667 485.333333,397.666667 487.5,397 C488.333333,396.666667 491.5,392.833333 494.333333,388.666667 C502.666667,376.5 530.833333,349.333333 539.166667,345.333333 C543.333333,343.333333 548.5,339.833333 550.666667,337.5 C552.833333,335.166667 555.666667,333.333333 557,333.333333 C558.333333,333.333333 561.666667,331.666667 564.5,329.666667 C567.333333,327.666667 573,325.5 577.166667,324.833333 C581.333333,324.166667 590.5,321.666667 597.333333,319.166667 C606.666667,315.833333 611.666667,314.833333 616.833333,315.666667 C621.166667,316.166667 624,315.833333 624.333333,314.666667 C624.666667,313.666667 629.666667,311.166667 635.166667,309.166667 C645.166667,305.5 645.666667,305.5 650.166667,308.5 C653,310.333333 656.166667,311.166667 658.666667,310.5 C663.166667,309.5 667.5,312.833333 673.333333,322 C675.5,325.5 679.833333,329.333333 683,330.666667 C689,333.166667 694,342.666667 694,351.333333 C694,353.833333 694.833333,356.833333 695.666667,357.666667 C696.666667,358.666667 697.666667,362.5 698.166667,366.333333 C698.5,370.166667 699.666667,376.166667 700.5,379.5 C701.5,383 702,387 701.833333,388.333333 C701.666667,390.666667 702.833333,405.5 704.833333,423.333333 C705.333333,427.5 706.333333,435.333333 707.333333,440.833333 C708.166667,446.333333 709.333333,458.833333 709.833333,468.666667 C710.333333,478.5 711.5,488.5 712.333333,490.833333 C713.333333,493.333333 714,497.333333 714,500 C714,502.666667 714.833333,505.333333 715.666667,505.833333 C716.666667,506.333333 717.333333,509.833333 717.333333,513.333333 C717.333333,517 718.333333,523.166667 719.666667,527 C721,531 722.5,537 723,540.5 C723.666667,543.833333 724.833333,546.666667 725.5,546.666667 C726.333333,546.666667 727.5,549.5 728.166667,552.833333 C728.666667,556.166667 731,561.333333 733.333333,564.166667 C735.5,567.166667 737.333333,570.5 737.333333,571.666667 C737.333333,575.666667 746.166667,584.166667 751.333333,585 C754.833333,585.5 756.666667,587 757,589.166667 C758,594.833333 760,595.333333 766.666667,591.833333 C774.666667,587.5 779.166667,587.5 786,591.666667 C793.666667,596.333333 800,595.833333 805.666667,590.5 C813.5,582.833333 817.166667,580 819.833333,580 C824.166667,580 824.5,584.666667 820.833333,591.166667 C818.833333,594.666667 816.333333,599.5 815.333333,601.833333 C812.166667,609.166667 801.5,615 791,615 C781.5,615 776.166667,617 772.666667,622 C771.166667,624 768.333333,625 763.833333,625 C759.166667,625 757.333333,625.666667 757.333333,627.5 C757.333333,630.666667 750.5,632.333333 743.333333,631 C739.833333,630.333333 737.166667,630.666667 736.5,631.833333 C735.833333,632.833333 733.5,633.166667 731.166667,632.5 C728.166667,631.833333 726.333333,632.333333 724.833333,634.333333 C723,637 722.333333,637 716,633.833333 C712.166667,632 708.833333,631.166667 708.5,632.166667 C707.666667,634.666667 697.833333,631.833333 692.666667,627.5 C690.166667,625.333333 685,623 681.5,622.333333 C677.833333,621.666667 673.833333,619.833333 672.666667,618 C667.666667,611.166667 657.333333,618.166667 657.333333,628.5 C657.333333,631.666667 656.166667,635.666667 654.833333,637.333333 C653.5,639.166667 652.333333,641.666667 652.333333,643 C652.333333,644.166667 650.166667,648.333333 647.666667,652.166667 C645,656 641,662.166667 638.666667,665.833333 C633.833333,673.333333 627,681.833333 620.333333,688.666667 C617.666667,691.5 616.833333,693.333333 618.166667,693.333333 C619.5,693.333333 620.833333,692.666667 621.333333,691.833333 C621.833333,691.166667 624.333333,690.5 626.833333,690.666667 C630.333333,690.833333 631.5,691.666667 631.666667,694.5 C632,699.333333 631.333333,700 619.833333,707.5 C610.5,713.666667 592.166667,719.833333 583,720 C581.166667,720 576.333333,722.166667 572.166667,724.833333 C568.166667,727.5 562.666667,730.333333 559.833333,731 C557.166667,731.666667 553.833333,732.833333 552.666667,733.833333 C551.5,734.833333 543.333333,735.833333 534.333333,736.166667 C521.5,736.833333 517.5,736.5 514.833333,734.333333 Z M537.166667,683 C539.333333,681.333333 541.666667,680 542.5,680 C544.333333,680 559.666667,669.666667 560.333333,668 C560.666667,667.166667 561.833333,666.666667 562.833333,666.666667 C564,666.666667 567.5,663.666667 570.666667,659.833333 C573.833333,656.166667 578.5,651 581,648.166667 C583.5,645.5 586.666667,641.166667 588,638.666667 C589.333333,636.166667 592.333333,632 594.666667,629.166667 C599.5,623.666667 599.666667,623.5 612.166667,599.166667 C621.5,581.333333 628.666667,565.333333 630.833333,557.833333 C632,553.666667 631.833333,553.333333 628.833333,554.166667 C625.166667,555.333333 624.666667,551.166667 627.333333,541.666667 C629.166667,535.666667 627.333333,514.5 623.666667,498.333333 C622.833333,494.166667 621.666667,475.5 621.333333,456.666667 C620.833333,437.833333 619.833333,420.333333 619,417.5 C618.166667,414.833333 617.333333,407.333333 617.166667,400.833333 C616.833333,386.5 615.833333,381.666667 613.5,381.666667 C610.666667,381.666667 586.5,407.833333 576.833333,421.333333 C572.166667,428 565.333333,437.333333 561.833333,442.166667 C558.166667,447 554.666667,452.5 553.833333,454.666667 C553,456.833333 550.5,461 548.333333,463.833333 C546.333333,466.833333 543.166667,472.5 541.666667,476.5 C540.166667,480.5 536.166667,489.5 532.833333,496.5 C521.833333,519.833333 519.833333,526.833333 513.166667,565 C512,571.833333 510.833333,577.666667 510.666667,578 C510.166667,578.333333 509.5,581 509.166667,583.333333 C509.166667,584.333333 508.166667,585 507.333333,585 C505.166667,585 505.5,565.666667 507.833333,560 C508.666667,557.666667 509.666667,551.666667 510,546.666667 C510.333333,541.666667 511.333333,536 512.166667,534.166667 C514.666667,528.666667 522.333333,504 522.333333,501 C522.333333,499.5 523.166667,498.333333 524,498.333333 C525,498.333333 525.666667,497.166667 525.666667,495.666667 C525.666667,492.5 541.5,459.666667 546.333333,452.5 C548.333333,449.833333 551.166667,444.833333 553,441.666667 C554.666667,438.5 556.666667,435.5 557.166667,435 C559.666667,433.166667 566,421.5 565,420.5 C564.5,419.833333 563.833333,419.833333 563.5,420.166667 C563.166667,420.5 561,423.666667 558.5,427 C556,430.333333 554,433.5 554,434 C554,434.5 552.166667,436.833333 550,439.166667 C547.833333,441.5 544.333333,447 542.333333,451.333333 C540.333333,455.666667 536.5,462.333333 533.833333,466.166667 C531.166667,470 529,474.166667 529,475.666667 C529,477 528.166667,478.666667 527.166667,479.166667 C522.833333,482 507.333333,520.333333 507.333333,528.5 C507.333333,530.166667 506.666667,532 505.666667,532.5 C504.833333,533 504,535.666667 504,538.333333 C504,541 503.333333,543.666667 502.333333,544.166667 C501.5,544.666667 500.666667,548.333333 500.666667,552.166667 C500.666667,556 499.5,562.166667 498.333333,565.833333 C497,569.5 496.333333,574.5 496.833333,577.166667 C497.5,580.166667 497,581.666667 495.666667,581.666667 C494.166667,581.666667 493.833333,583.5 494.5,587.666667 C495.166667,591 494.833333,595.166667 493.833333,597 C488.833333,606.333333 491.167668,642.5 498.333333,664.166667 C503.5,679.833333 504.333333,681.333333 513.166667,685.166667 C521,688.666667 531,687.833333 537.166667,683 Z" id="Shape"></path>
                <path d="M641.833333,673.833333 C639.833333,672 640.5,666.666667 642.833333,666.666667 C645.166667,666.5 652.333333,656 652.333333,652.666667 C652.333333,651.333333 653.5,649.5 654.833333,648.333333 C656.166667,647.166667 657.333333,645.5 657.333333,644.5 C657.333333,643.666667 659.166667,640.333333 661.5,637.333333 C663.833333,634.333333 666.5,629.833333 667.333333,627.5 C669.166667,622.666667 672.833333,622.666667 673.833333,627.5 C674.5,631.333333 665.166667,649.666667 659,656.166667 C656.5,658.833333 653.833333,662.666667 653.333333,664.666667 C652.666667,666.666667 651.5,668.333333 650.666667,668.333333 C649.833333,668.333333 648.666667,669.833333 648.166667,671.666667 C647.166667,675 644,676 641.833333,673.833333 Z" id="Path"></path>
                <path d="M881.166667,580.666667 C878.5,579.5 874.5,576.833333 872,574.666667 C869.5,572.666667 863,568.333333 857.666667,565.333333 C850.666667,561.333333 846.666667,557.666667 844,552.833333 C841.833333,549 839.666667,545.5 839,545 C838.5,544.5 835.5,540 832.5,535 C827.833333,527.5 827.333333,525.5 828.833333,522.833333 C830.166667,520.833333 830.333333,519 829.333333,517.833333 C825.833333,513.5 822.5,498 824.166667,493.666667 C825,491.333333 825.333333,488.166667 824.666667,486.833333 C822.166667,480.833333 820.5,471.833333 819.666667,460.166667 C819.166667,453.333333 818,446 817.166667,443.833333 C816.333333,441.5 816,439.166667 816.5,438.333333 C816.833333,437.666667 816.166667,430.833333 814.666667,423.166667 C813.166667,414.5 812.166667,400.333333 812.333333,386.333333 C812.333333,371.333333 811.833333,363.166667 810.666667,362.5 C809.666667,361.833333 809.333333,360.166667 809.833333,358.5 C810.5,357 811.166667,342.5 811.5,326.333333 C811.833333,310 813,295.333333 813.833333,293.666667 C814.666667,292 816,286.5 816.666667,281.5 C818,270 823,258.833333 827.333333,257.5 C829.166667,257 830.666667,255.833333 830.666667,255 C830.666667,252.333333 845.5,245 850.833333,245 C860.333333,245 875.166667,251.666667 882.5,259.166667 C886.5,263.166667 895.333333,269.166667 903.5,273.333333 C911.166667,277.166667 918,281.333333 918.333333,282.5 C918.833333,283.666667 917.666667,288.833333 915.833333,294.166667 C912.833333,302.5 909.833333,329.166667 910,345.833333 C910.166667,367.5 912.666667,416.5 914,426 C916.666667,444.166667 916.666667,444.166667 914,444 C912.666667,443.833333 910.333333,443.166667 908.833333,442.666667 C905.166667,441.166667 903.833333,445 905.666667,452 C906.5,455 908.333333,463.166667 909.833333,470 C915.833333,497.666667 919.333333,505.833333 924.5,504.666667 C926.666667,504.166667 926.666667,502.833333 923.666667,493.666667 C921.166667,486.166667 920.666667,482.666667 922,481.333333 C924.5,478.833333 927.166667,481 930.166667,488.5 C931.5,492 933.166667,495 933.833333,495 C935.833333,494.833333 940.666667,490.5 940.666667,488.5 C940.666667,487.5 941.833333,486.666667 943.166667,486.666667 C944.5,486.666667 945.666667,485.166667 945.666667,483.333333 C945.666667,481.5 946.833333,479.5 948.166667,479 C949.5,478.333333 950.666667,476.666667 950.666667,475.166667 C950.666667,473.666667 952.166667,471.5 954,470.333333 C955.833333,469.166667 957.333333,466.5 957.333333,464.333333 C957.333333,462.166667 958.5,460 959.833333,459.333333 C961.166667,458.833333 962.333333,457.333333 962.333333,456 C962.333333,454.666667 963.333333,452.833333 964.5,452.166667 C967.333333,450.166667 970.666667,444 970.666667,440 C970.666667,438.166667 971.5,436.666667 972.333333,436.666667 C974.5,436.666667 980.666667,422.833333 980.666667,418.166667 C980.666667,416.5 981.333333,415 982.166667,415 C984.5,415 987.666667,404.166667 986.5,399.666667 C985,394 989.666667,370 997,345.833333 C1004.16667,322.166667 1005.5,315.5 1006.66667,299.166667 C1008.16667,281.5 1008.5,252.5 1007.5,235.833333 C1007.16667,230.333333 1007,214.833333 1007.16667,201.333333 L1007.33333,176.833333 L1012.33333,174.166667 C1016.5,172 1017.16667,170.833333 1016.33333,167 C1015.83333,164.5 1016.5,160.333333 1018,157.5 C1019.5,154.833333 1020.66667,149.666667 1020.66667,146.166667 C1020.66667,140.666667 1022,138.5 1029.5,131 C1034.16667,126.166667 1039.33333,120.666667 1040.66667,118.666667 C1043,115 1051.66667,111 1054,112.5 C1054.66667,113 1055.66667,111.833333 1056.16667,110 C1056.66667,107.666667 1058.5,106.666667 1061.33333,106.666667 C1064,106.666667 1065.66667,105.666667 1065.66667,104.333333 C1065.66667,101.5 1069.66667,99.8333333 1073.16667,101 C1076.33333,102.333333 1079,107 1079,111.166667 C1079,112.833333 1081.16667,115.5 1083.83333,117.166667 C1090.16667,120.833333 1092.16667,127.166667 1093,146.666667 C1093.33333,155.333333 1094.5,165.833333 1095.5,170 C1096.5,174.166667 1097.5,185.333333 1097.83333,195 C1098.16667,204.666667 1099.33333,214.166667 1100.16667,215.833333 C1101.16667,217.666667 1102,228.5 1102.16667,240 C1102.33333,251.5 1103,264.666667 1103.66667,269.166667 C1104.33333,273.833333 1104.33333,281.333333 1103.83333,285.833333 C1103.16667,290.5 1102.5,298.833333 1102.5,304.5 C1102.33333,310.166667 1101.66667,318.5 1100.83333,322.833333 C1099.83333,327.166667 1098.83333,335.666667 1098.33333,341.666667 C1097.83333,347.666667 1096.66667,355 1095.66667,358.166667 C1094.83333,361.333333 1094.33333,364.333333 1094.83333,364.666667 C1095.33333,365.166667 1094.83333,366.5 1094,367.666667 C1093,368.666667 1092,372 1091.5,374.833333 C1091.16667,377.833333 1089.33333,383.333333 1087.66667,387.166667 C1085.83333,391 1083.83333,395.833333 1083.16667,398 C1082.66667,400 1081.5,401.666667 1080.66667,401.666667 C1079.83333,401.666667 1078.83333,403.833333 1078.16667,406.5 C1077.66667,409.166667 1076,412.333333 1074.66667,413.5 C1073.33333,414.5 1072.33333,417.5 1072.33333,420 C1072.33333,422.5 1070.33333,428.166667 1068,432.666667 C1065.5,437.166667 1062.33333,443.5 1060.66667,446.666667 C1059.16667,449.833333 1055.5,457.333333 1052.5,463 C1049.66667,468.833333 1047.33333,474.833333 1047.33333,476.333333 C1047.33333,478 1045.83333,481.333333 1044,484.166667 C1042.16667,486.833333 1039.83333,493.166667 1038.83333,498 C1037,507.166667 1029.33333,517.833333 1016,529.5 C1008.66667,536 1010.5,536.833333 1018.33333,530.833333 C1021.33333,528.5 1024.33333,526.666667 1025,526.666667 C1025.5,526.666667 1029,523.666667 1032.66667,520 C1039.33333,513.333333 1047.33333,511 1047.33333,515.5 C1047.33333,518.833333 1024.33333,541.666667 1020.83333,541.666667 C1019.83333,541.666667 1019,542.333333 1019,543 C1019,544.5 1011,547.5 1002.33333,549.166667 C994.833333,550.666667 980.666667,556.666667 980.666667,558.333333 C980.666667,559 979.333333,560 977.833333,560.666667 C976.166667,561.166667 973.666667,562.333333 972.333333,563.166667 C971,564 967.5,565.666667 964.666667,566.666667 C961.666667,567.666667 958,569.833333 956.333333,571.5 C949.166667,578 891.166667,585.166667 881.166667,580.666667 Z" id="Path"></path>
                <path d="M918.333333,476.333333 C914.666667,471.166667 915,466.666667 918.833333,466.666667 C922.166667,466.666667 924,469.666667 924,475 C924,479.833333 921.166667,480.5 918.333333,476.333333 Z" id="Path"></path>
                <path d="M1294,400.666667 C1281,398.666667 1263.66667,394 1255.83333,390.333333 C1232.33333,379.5 1199.83333,349 1197.83333,336 C1197.5,334.166667 1196.33333,331.5 1195,330.166667 C1191.66667,326.166667 1187.66667,317.333333 1186.5,311.333333 C1186,308.333333 1184.5,303.666667 1183.16667,300.833333 C1176.33333,285.333333 1173.16667,273.333333 1169.83333,251 C1167,231.833333 1166.33333,182.5 1168.83333,179.333333 C1169.5,178.333333 1170.66667,174.166667 1171.33333,170 C1173,157.666667 1176.16667,146 1178.33333,143.333333 C1179.5,142 1182.33333,137.166667 1184.83333,132.5 C1187.33333,128 1191.16667,121.833333 1193.33333,118.833333 C1195.5,116 1197.33333,112.333333 1197.33333,111 C1197.33333,109.5 1197.83333,108.333333 1198.66667,108.333333 C1199.33333,108.333333 1201.66667,105.5 1204,102 C1206.33333,98.6666667 1211,92.8333333 1214.33333,89.1666667 C1217.66667,85.5 1222.66667,79.5 1225.33333,75.8333333 C1233.33333,65.1666667 1247.66667,50.6666667 1253.16667,48 C1256,46.6666667 1262.33333,43.5 1267.33333,40.8333333 C1290.66667,29 1306.5,27.1666667 1327.83333,34.1666667 C1334.66667,36.3333333 1345,41.1666667 1350.83333,45 C1356.5,48.6666667 1364.33333,52.5 1368,53.5 C1391.83333,59.6666667 1398.16667,63.3333333 1404.5,74.5 C1406.5,78.1666667 1406.83333,80.1666667 1405.5,81 C1404.33333,81.6666667 1404.33333,82.5 1405.16667,83.1666667 C1406.16667,83.6666667 1407.33333,87 1407.83333,90.3333333 C1408.66667,95.6666667 1408.33333,96.6666667 1405.83333,96.6666667 C1403.5,96.6666667 1402.5,95 1401.83333,90.5 C1400.66667,81.8333333 1391,67.5 1384.33333,64.1666667 L1378.66667,61.5 L1382,65.8333333 C1388,73.5 1391,85.6666667 1391,103 C1391,120.5 1388,146.333333 1385.66667,149.166667 C1384.83333,150.166667 1383.66667,154.166667 1383,158 C1382.5,161.833333 1380.83333,165.833333 1379.66667,166.833333 C1378.33333,167.833333 1377.33333,169.666667 1377.33333,171 C1377.33333,172.166667 1375.5,176.666667 1373.16667,181.166667 C1370.83333,185.5 1369.33333,190 1369.83333,191.333333 C1370.33333,192.666667 1369.33333,194 1367.33333,194.5 C1365,195.166667 1364,196.833333 1364,199.833333 C1364,202.333333 1362.16667,205.833333 1359.83333,208.166667 C1357.5,210.333333 1355.66667,212.666667 1355.66667,213.666667 C1355.66667,215.666667 1333.66667,236.666667 1331.5,236.666667 C1330.66667,236.666667 1327.66667,238.5 1324.83333,240.666667 L1319.83333,244.666667 L1325.66667,244.5 C1333.33333,244 1334.83333,249 1327.5,250.5 C1323.83333,251.333333 1322.66667,252.333333 1323.33333,254.166667 C1324,255.833333 1323.33333,256.666667 1321.33333,256.666667 C1319,256.666667 1318.66667,257 1320.33333,258.166667 C1321.5,258.833333 1324.33333,259.166667 1326.66667,258.666667 C1329.5,258.166667 1330.66667,258.666667 1330.66667,260.5 C1330.66667,263.333333 1324.33333,267.666667 1322.66667,266 C1322.16667,265.5 1320.66667,266 1319.16667,267.333333 C1314.83333,271 1299.66667,275.333333 1287,276.5 C1277,277.333333 1275,278 1274.66667,280.666667 C1274.5,282.5 1273,284.5 1271.66667,285.333333 C1268.16667,287.333333 1268.16667,298 1271.83333,309 C1278.33333,329.333333 1285.16667,340.666667 1297.5,353 C1305.33333,360.666667 1310,361.666667 1319.5,357.833333 C1322.5,356.5 1330.5,354.166667 1337.33333,352.5 C1347.66667,349.833333 1357.5,345 1362.33333,340 C1367.16667,335.166667 1379.66667,328.333333 1383.83333,328.333333 C1387.66667,328.333333 1390.16667,326.666667 1395.16667,320.833333 C1398.5,316.666667 1402.66667,313 1404.16667,312.5 C1405.66667,312 1410,308.5 1413.83333,304.833333 C1418.83333,299.833333 1421.5,298.333333 1424,299.166667 C1426.16667,299.833333 1428.66667,298.833333 1431.5,296 C1433.83333,293.666667 1436.66667,291.666667 1437.83333,291.5 C1439,291.5 1443.5,289.666667 1448,287.666667 C1455.66667,284 1465.66667,272.666667 1465.66667,267.5 C1465.66667,266.333333 1466.83333,265 1468.16667,264.333333 C1469.5,263.833333 1470.66667,262.333333 1470.66667,261 C1470.66667,259.833333 1471.83333,258.166667 1473.33333,257.666667 C1477.33333,256.166667 1482.33333,256.5 1482.33333,258.333333 C1482.33333,259.333333 1484.66667,260 1487.33333,260 C1491.16667,260 1492.33333,260.666667 1492.33333,263.333333 C1492.33333,267 1480.83333,290 1479,290 C1478.5,290 1477,292.666667 1475.66667,295.833333 C1474.33333,299 1472.83333,301.666667 1472.16667,301.666667 C1471.5,301.666667 1470.66667,303 1470,304.666667 C1468.83333,308.5 1466,312.5 1459.83333,319.166667 C1457.16667,322.166667 1453.16667,326.5 1451.16667,328.833333 C1449,331.166667 1447.33333,333.833333 1447.33333,334.833333 C1447.33333,335.833333 1446.33333,336.666667 1445,336.666667 C1443.5,336.666667 1443,337.833333 1443.5,340 C1444.16667,342.5 1443.5,343.333333 1441.33333,343.5 C1439,343.666667 1439.33333,344 1442.33333,344.833333 C1444.66667,345.5 1446.5,347 1446.5,348.333333 C1446.5,351.166667 1440.66667,352.833333 1439.16667,350.5 C1438.66667,349.5 1435.16667,351.833333 1431.5,355.333333 C1427.83333,359 1426.16667,361.333333 1427.66667,360.833333 C1433.33333,358.666667 1434.16667,361.833333 1429.5,367.833333 C1418.16667,382.666667 1391,394 1352.33333,400 C1343.33333,401.333333 1302.16667,401.833333 1294,400.666667 Z M1266.33333,207.5 C1272.33333,201.666667 1277.33333,195.666667 1277.33333,194.166667 C1277.33333,192.833333 1278.16667,191.666667 1279,191.666667 C1280,191.666667 1281.33333,190 1282.16667,188 C1283,185.833333 1285.5,181.5 1287.66667,178.166667 C1290,175 1293.16667,168.666667 1294.83333,164.333333 C1296.5,160.166667 1298.5,156.166667 1299.16667,155.666667 C1300,155.166667 1300.66667,152.666667 1300.66667,150.166667 C1300.66667,147.666667 1301.5,144.833333 1302.66667,143.666667 C1304.16667,142.166667 1304.16667,141.666667 1302.66667,141.666667 C1301.5,141.666667 1300.66667,139.166667 1300.66667,135.166667 C1300.66667,131.5 1299.83333,128.333333 1298.66667,128 C1297.16667,127.5 1297.66667,124.333333 1300.16667,116.5 C1302,110.666667 1303.33333,105.666667 1303.16667,105.333333 C1301.83333,103.666667 1294,107.5 1294,109.833333 C1294,111.333333 1291.66667,114.666667 1289,117.333333 C1286.16667,120 1284,122.833333 1284,123.5 C1284,124 1282.5,125 1280.66667,125.5 C1278.83333,126 1276.16667,129 1274.83333,132.333333 C1273.33333,135.666667 1271.5,138.333333 1270.66667,138.333333 C1269.66667,138.333333 1269,139.666667 1269,141.5 C1269,143.166667 1267.83333,145.5 1266.5,146.666667 C1265.16667,147.833333 1264,150 1264,151.5 C1264,153 1262.83333,156.5 1261.33333,159.166667 C1257.16667,167 1254,178.5 1254,186 C1254,190.166667 1253,193.833333 1251.5,195 C1250.16667,196.166667 1249.5,197.833333 1250.16667,198.833333 C1250.66667,199.833333 1251,204.666667 1250.83333,209.5 C1250.33333,221.333333 1252.5,221 1266.33333,207.5 Z" id="Shape"></path>
                <path d="M711,385.5 C710.166667,383.833333 707.833333,376.166667 705.833333,368.333333 C703.666667,360.5 700.666667,351.333333 698.833333,347.833333 C697.166667,344.166667 695.666667,340.333333 695.666667,339 C695.666667,336.5 700.166667,336 704.833333,337.666667 C709.833333,339.666667 715.166667,355 710.833333,355 C710,355 710.333333,357.833333 711.5,361.333333 C716.333333,375.833333 716,395.333333 711,385.5 Z" id="Path"></path>
                <path d="M349.5,320.5 C348.333333,320 347.333333,318 347.333333,316 C347.333333,314 346.5,311.5 345.5,310.5 C342.833333,307.833333 345.166667,305 349.833333,305 C353.333333,305 353.666667,305.666667 353.666667,312.5 C353.666667,320.333333 353,321.666667 349.5,320.5 Z" id="Path"></path>
                <path d="M1487.33333,299.5 C1487.33333,297.166667 1494,290 1496.33333,290 C1497,290 1497.33333,292.5 1497,295.5 C1496.66667,300 1495.66667,301 1492,301.333333 C1488.83333,301.666667 1487.33333,301.166667 1487.33333,299.5 Z" id="Path"></path>
                <path d="M1609.83333,243.5 C1608.83333,242.666667 1603.83333,239.666667 1598.5,236.833333 C1587.83333,231.333333 1580.66667,225.333333 1580.66667,222.166667 C1580.66667,221 1579.83333,220 1578.83333,220 C1576.5,220 1567.33333,209.833333 1567.33333,207.166667 C1567.33333,202.666667 1571.33333,203.333333 1577,208.833333 L1583.16667,214.833333 L1582.66667,207.333333 C1581.83333,198.333333 1584.5,191.333333 1590.16667,187.166667 C1592.5,185.5 1595.33333,183.333333 1596.33333,182.333333 C1600,178.833333 1608.83333,175 1613.16667,175 C1615.5,175 1617.83333,173.833333 1618.5,172.333333 C1619.16667,170.666667 1620.66667,170 1623,170.666667 C1625.5,171.333333 1627.33333,170.5 1628.83333,168 C1630.66667,165 1632.16667,164.666667 1640.66667,165.333333 C1648.16667,165.833333 1650.16667,165.5 1649.5,163.833333 C1649,162.666667 1649.16667,159.666667 1649.66667,157.333333 C1650.83333,152.833333 1651.66667,152.666667 1663.83333,155.666667 C1668.66667,156.833333 1675.66667,161.166667 1675.66667,163.333333 C1675.66667,164 1674.66667,165.833333 1673.33333,167 C1670.33333,170.166667 1668.33333,176.5 1668.83333,181.666667 C1669,184 1668,187.333333 1666.83333,189.166667 C1665.16667,191.333333 1664.83333,193.5 1665.83333,196.166667 C1666.66667,198.5 1666.66667,201.666667 1665.66667,204.333333 C1664.66667,206.666667 1663.66667,211.5 1663.16667,215.166667 C1662.66667,219.5 1660.33333,224.333333 1657,228.333333 C1650.33333,236.333333 1640.66667,239.166667 1621.66667,238.666667 L1608.66667,238.333333 L1612.5,241.666667 C1615.5,244 1615.83333,244.833333 1614,245 C1612.5,245 1610.66667,244.333333 1609.83333,243.5 Z" id="Path"></path>
                <path d="M1104.83333,144.333333 C1103.5,141.166667 1102.33333,137 1102.33333,135.166667 C1102.33333,133.333333 1101.66667,131.5 1100.83333,131 C1100,130.333333 1098.83333,127 1098.16667,123.5 C1097.5,119.833333 1096,116 1094.66667,114.833333 C1091.5,112.333333 1091.5,103.333333 1094.66667,103.333333 C1098.83333,103.333333 1102.33333,105.333333 1102.33333,107.666667 C1102.33333,108.833333 1103.83333,112.333333 1105.66667,115.333333 C1107.5,118.333333 1109,122.5 1109,124.666667 C1109,126.666667 1110,130.166667 1111.33333,132.166667 C1114.5,137.166667 1113.66667,149 1110,149.666667 C1108.16667,150 1106.5,148.333333 1104.83333,144.333333 Z" id="Path"></path>
            </g>
            <g id="layer102" transform="translate(331.333333, 153.500000)" fill="#FF1C95">
                <path d="M8,898.5 C6,894.166667 4.33333333,889.5 4.33333333,888.166667 C4.33333333,886.666667 3.33333333,884.5 2.33333333,883.333333 C-1.33333333,879.833333 -0.166666667,857.833333 3.83333333,852.166667 C10.5,842.833333 14.3333333,834.666667 14.3333333,830.166667 C14.3333333,827.5 15,824.833333 15.6666667,823.833333 C16.5,823 18,819.333333 19,815.5 C21,808.333333 21.6666667,807.666667 40.3333333,789.666667 C50.1666667,780.166667 67.6666667,768 67.6666667,770.666667 C67.6666667,771.166667 70.3333333,770.333333 73.6666667,769 C77,767.666667 81.8333333,766.5 84.3333333,766.5 C87,766.5 96.1666667,763.166667 104.833333,759 C113.666667,754.833333 121.5,751.5 122.5,751.5 C123.5,751.5 124.333333,750.833333 124.333333,750.166667 C124.333333,749.333333 127.5,747.5 131.5,745.833333 C135.333333,744.333333 143,740.833333 148.5,738.166667 C165.333333,730.166667 174.833333,726.333333 182.333333,724.666667 C186.333333,723.833333 194.833333,720.5 201.333333,717.333333 C207.666667,714.166667 214.333333,711.5 215.833333,711.5 C217.333333,711.5 219.333333,710.833333 220.166667,710.166667 C221.166667,709.333333 225.666667,707.333333 230.166667,705.666667 C237.833333,702.833333 254.666667,695 300.166667,673.166667 C324.166667,661.666667 335.833333,656.5 337.833333,656.5 C338.833333,656.5 343.166667,654.833333 347.5,652.666667 C351.666667,650.5 357.833333,647.5 361,646 C383.666667,635.666667 393.5,630.666667 394,629.5 C394.333333,628.833333 395.333333,628.166667 396.333333,628.166667 C397.166667,628.166667 402.833333,626 408.833333,623.166667 C414.666667,620.5 419.833333,618.166667 420.166667,618.166667 C420.5,618.166667 427,615.333333 434.666667,611.666667 C442.166667,608.166667 450.666667,604.833333 453.5,604.166667 C456.166667,603.5 461.333333,601.5 465.166667,599.833333 C474.166667,595.666667 480.166667,595 480.166667,598 C480.166667,600 455.333333,614.5 440.166667,621.5 C437.166667,622.833333 437.333333,623 441.333333,623 C446,623.166667 451,621.333333 467.833333,613 C473,610.5 479.833333,608 482.833333,607.333333 C486,606.666667 489.333333,605.5 490.166667,604.833333 C491.166667,604.333333 496.666667,602 502.666667,599.833333 C508.666667,597.666667 515.333333,595 517.666667,594 C553,576.666667 559.833333,572.666667 563.666667,566.333333 C564.5,564.833333 572.666667,559.833333 581.833333,555 C591,550.166667 599.333333,545.333333 600.166667,544.5 C602.333333,542.166667 603,542 573.5,556.333333 C524.833333,579.833333 523.666667,580.333333 524.666667,575.5 C525.166667,572.5 554,556.5 558.833333,556.5 C559.833333,556.5 561,555.833333 561.333333,555.166667 C561.666667,554.333333 568.166667,550.666667 576,546.833333 C583.833333,543 594.666667,537.5 600.166667,534.333333 C605.666667,531.333333 613.5,527.5 617.666667,525.666667 C642.833333,515.166667 650.166667,511.833333 690.166667,492.333333 C716.166667,479.666667 765.5,456.833333 782,449.833333 C785.833333,448.166667 792.833333,445 797.833333,442.666667 C808.166667,438 836.333333,425.333333 848.5,419.833333 C860.833333,414.5 877.333333,406.833333 887.666667,401.666667 C892.666667,399.166667 900,396.166667 904,394.833333 C907.833333,393.666667 911,392 911,391.333333 C911,390.666667 913.833333,389.166667 917.333333,388 C920.666667,386.833333 929.666667,383.166667 937.333333,379.5 C945,376 952,373.166667 953,373.166667 C953.833333,373.166667 956.666667,372 959,370.666667 C961.5,369.333333 969.5,365.5 976.833333,362.166667 C984.166667,358.833333 994,354.333333 998.666667,352.166667 C1008.16667,347.666667 1010.5,347.333333 1011.33333,350 C1011.83333,351.5 1012.83333,351.5 1015.16667,350 C1017,349 1021.66667,347.166667 1025.66667,345.833333 C1031.16667,344 1032.66667,344 1032.66667,345.666667 C1032.66667,348.166667 1024,353.833333 1007.33333,362.333333 C1000.16667,366 993.833333,370.166667 993.333333,372 C992.333333,375 981.5,380.666667 967,385.5 C962.5,387 956.166667,390.5 953.166667,393.166667 C950,396 946.833333,398.166667 945.833333,398.166667 C945,398.166667 940,400.833333 935,404 C930,407.166667 925.5,409.833333 925,409.833333 C924.333333,409.833333 909.666667,416.833333 892,425.5 C848.666667,446.833333 841.333333,450 833,451.666667 C823.833333,453.5 793.666667,468.333333 786.666667,474.5 C784.5,476.5 763,486.5 761,486.5 C758.833333,486.5 734.666667,496.333333 721.5,502.5 C715,505.666667 708.833333,508.166667 707.833333,508.166667 C706.833333,508.166667 703,510 699.333333,512.333333 C695.666667,514.666667 692.166667,516.5 691.5,516.5 C690.666667,516.666667 681.166667,521.166667 670.166667,526.666667 C659.166667,532.166667 651.666667,536.166667 653.5,535.666667 C655.333333,535 660.166667,533.833333 664.333333,533 C668.5,532.166667 673.833333,531 676.5,530.5 C682.666667,529 682.166667,531.833333 675.666667,534.5 C662,540.166667 639.833333,553.166667 643.833333,553.166667 C645.666667,553.166667 652.666667,550.166667 681.833333,536.5 C687.333333,534 696.333333,529.833333 701.833333,527.333333 C707.333333,524.833333 723.666667,516.833333 738.166667,509.666667 C762.5,497.5 773.833333,493.666667 772.333333,498.333333 C772,499.5 766.666667,503 760.5,506.166667 C754.333333,509.333333 749.5,512.333333 749.833333,512.5 C750.5,513.166667 766.166667,507.333333 770.666667,504.833333 C772.166667,504 779.166667,500.666667 786,497.666667 C804.333333,489.166667 819.333333,482.166667 842.333333,471.333333 C853.5,465.833333 863.666667,461.5 865,461.5 C866.333333,461.5 869.5,460.333333 872,459 C874.666667,457.666667 877.833333,456.5 879,456.5 C882.666667,456.5 881.166667,460.833333 876.833333,462.833333 C874.5,463.833333 872.666667,465.833333 872.666667,467.166667 C872.666667,470.666667 869.5,472.166667 866.833333,469.833333 C865,468.333333 863.666667,468.5 860.5,471 C858.333333,472.666667 856.833333,474.833333 857.166667,475.666667 C857.333333,476.666667 852.833333,480 846.833333,483.166667 C840.833333,486.333333 836,489.666667 836,490.5 C836,493.5 828.833333,498 815.5,503.333333 C808,506.333333 799.166667,510.833333 796,513.333333 C792.833333,515.833333 786.333333,519.833333 781.666667,522.166667 C777,524.5 772.333333,527.5 771.166667,528.666667 C769.333333,531 766.333333,532.5 742.666667,541.5 C734.833333,544.666667 716.166667,553 701.333333,560.166667 C686.333333,567.333333 673.5,573.166667 673,573.166667 C671.5,573.166667 619.833333,599.5 613,603.833333 C609.666667,605.833333 602.333333,609.333333 596.833333,611.5 C591.333333,613.666667 577.5,620 566,625.5 C554.5,631.166667 541.666667,637 537.5,638.666667 C533.333333,640.333333 527.333333,643.5 524.333333,645.666667 C521.166667,648 517.5,649.833333 516.166667,649.833333 C514.833333,649.833333 511.833333,651.5 509.5,653.666667 C507,655.833333 499.333333,660 492.333333,663.166667 C485.166667,666.166667 478.5,669.666667 477.5,670.833333 C476.5,672.166667 475,673.166667 474.166667,673.166667 C472.166667,673.166667 410.5,703 407.666667,705.5 C406.333333,706.666667 399.5,710 392.666667,713 C385.833333,716 379,719.5 377.666667,720.666667 C376.333333,721.833333 367,727.166667 356.833333,732.333333 C332,745.333333 296.333333,763.666667 275,774.666667 C259.833333,782.5 257.5,784.166667 258.333333,787.166667 C259,790.166667 256.5,792 239,800.666667 C225.333333,807.5 220,810.833333 222.5,811.166667 C224.333333,811.5 226,812.5 226,813.333333 C226,814.166667 217.166667,819.333333 206.166667,824.666667 C185.5,834.833333 171,843.666667 164.833333,849.666667 C162.833333,851.5 160.666667,853.166667 160.166667,853.166667 C159.5,853.166667 155.166667,855 150.5,857.166667 C145.666667,859.333333 136.666667,863.5 130.166667,866.5 C109.5,876 90.3333333,885 82.3333333,889 L74.5,892.833333 L71.8333333,887.333333 C69.8333333,883 68.5,882 66.3333333,882.833333 C61.5,885 49.1666667,890.833333 32.1666667,898.833333 C23.3333333,903 15,906.5 13.8333333,906.5 C12.8333333,906.333333 10.1666667,902.833333 8,898.5 Z" id="Path"></path>
                <g id="Group-30" transform="translate(1104.918719, 0.145216)">
                    <path d="M82.4146141,812.188117 C82.0812808,811.688117 77.2479475,810.521451 71.7479475,809.521451 C66.4146141,808.521451 58.5812808,805.854784 54.4146141,803.354784 C47.9146141,799.688117 34.9146141,787.521451 28.2479475,779.188117 C24.2479475,774.188117 19.4146141,763.854784 19.4146141,760.521451 C19.4146141,758.521451 18.2479475,755.521451 16.9146141,753.688117 C15.5812808,752.021451 14.4146141,749.354784 14.4146141,747.854784 C14.4146141,746.354784 12.9146141,743.854784 11.0812808,742.188117 C9.24794745,740.521451 7.74794745,737.688117 7.74794745,736.021451 C7.74794745,734.188117 7.08128078,731.521451 6.24794745,729.854784 C5.24794745,728.188117 4.24794745,721.854784 3.74794745,715.854784 C3.41461412,709.688117 2.58128078,704.021451 2.08128078,703.188117 C1.41461412,702.354784 1.74794745,701.188117 2.58128078,700.688117 C3.41461412,700.021451 3.08128078,697.521451 1.74794745,694.688117 C-0.418719216,690.688117 -0.418719216,687.521451 0.914614118,677.688117 C3.41461412,659.688117 6.08128078,645.854784 7.58128078,643.021451 C8.41461412,641.521451 9.58128078,637.854784 10.0812808,634.688117 C11.0812808,629.521451 13.4146141,622.688117 17.9146141,612.188117 C23.0812808,599.521451 24.7479475,595.021451 25.2479475,591.354784 C25.5812808,589.021451 28.5812808,581.854784 32.0812808,575.521451 C35.5812808,569.021451 39.0812808,562.188117 40.0812808,560.188117 C41.0812808,558.021451 42.4146141,556.354784 43.2479475,556.354784 C43.9146141,556.354784 44.4146141,555.688117 44.4146141,554.688117 C44.4146141,551.854784 61.2479475,530.021451 71.0812808,520.188117 C92.2479475,499.188117 100.914614,491.854784 111.581281,486.688117 C117.747947,483.688117 123.581281,480.354784 124.747947,479.188117 C127.914614,476.188117 136.247947,473.354784 158.914614,467.688117 C170.081281,464.854784 178.914614,461.854784 178.414614,461.188117 C176.581281,458.021451 175.747947,451.521451 174.914614,433.021451 C174.414614,422.521451 173.414614,413.021451 172.581281,412.021451 C171.747947,411.021451 170.747947,400.521451 170.081281,388.688117 C169.581281,376.854784 168.414614,364.521451 167.747947,361.354784 C166.914614,358.188117 165.747947,342.354784 165.247947,326.354784 C164.581281,310.354784 163.581281,296.688117 162.914614,296.021451 C162.247947,295.188117 158.747947,296.188117 155.247947,298.021451 C148.581281,301.521451 144.247947,302.354784 125.247947,303.854784 C97.0812808,306.354784 79.0812808,307.188117 68.0812808,306.688117 C57.0812808,306.188117 55.7479475,305.688117 54.4146141,302.188117 C53.5812808,300.021451 51.4146141,297.354784 49.4146141,296.354784 C44.7479475,293.854784 45.2479475,290.688117 51.7479475,284.354784 C57.7479475,278.354784 73.4146141,266.354784 75.2479475,266.354784 C76.5812808,266.354784 94.9146141,252.688117 100.747947,247.354784 C105.414614,243.021451 118.747947,226.354784 125.414614,216.188117 C131.914614,206.521451 143.581281,182.188117 145.081281,175.188117 C145.747947,172.354784 147.414614,169.021451 148.747947,167.854784 C150.081281,166.854784 151.081281,164.021451 151.081281,161.521451 C151.081281,158.188117 152.747947,156.021451 158.747947,152.354784 C166.081281,147.688117 166.914614,147.521451 180.747947,148.688117 C193.247947,149.688117 196.081281,150.521451 203.581281,155.521451 C208.247947,158.521451 215.247947,162.354784 219.247947,164.021451 C227.914614,167.354784 229.081281,169.854784 228.414614,181.188117 C227.581281,193.021451 229.914614,190.521451 231.081281,178.354784 C231.914614,169.021451 232.081281,168.854784 236.914614,168.854784 C241.747947,168.854784 241.914614,169.021451 241.581281,176.688117 C241.414614,183.688117 238.914614,192.854784 234.247947,203.854784 C232.414614,208.354784 230.414614,230.354784 230.914614,240.521451 C231.081281,245.188117 233.247947,265.688117 235.414614,286.354784 C240.081281,327.354784 240.581281,333.521451 241.914614,370.521451 C242.414614,384.354784 243.081281,401.188117 243.581281,408.021451 C243.914614,415.688117 243.581281,420.854784 242.414614,421.521451 C241.247947,422.188117 241.581281,424.021451 243.414614,426.688117 C244.914614,429.021451 245.747947,432.188117 245.081281,433.688117 C243.747947,437.021451 246.581281,437.188117 249.414614,433.854784 C250.581281,432.521451 252.914614,431.354784 254.581281,431.354784 C256.414614,431.354784 257.747947,430.688117 257.747947,429.688117 C257.747947,428.021451 278.581281,417.521451 286.081281,415.354784 C288.414614,414.854784 293.247947,413.021451 296.914614,411.354784 C300.581281,409.688117 309.914614,406.021451 317.747947,403.021451 C325.581281,400.021451 335.247947,395.688117 339.414614,393.188117 C343.581281,390.854784 348.914614,387.688117 351.247947,386.354784 C360.081281,381.188117 366.581281,377.021451 376.247947,370.188117 C381.581281,366.188117 386.747947,363.021451 387.747947,363.021451 C388.581281,363.021451 389.414614,362.188117 389.414614,361.354784 C389.414614,360.354784 391.414614,358.688117 394.081281,357.521451 C398.914614,355.354784 401.581281,353.354784 416.747947,339.854784 C441.414614,317.854784 466.081281,289.188117 466.081281,282.188117 C466.081281,278.521451 455.414614,277.354784 446.414614,279.854784 C436.247947,282.854784 396.914614,282.854784 383.581281,280.021451 C362.747947,275.354784 350.747947,271.354784 345.914614,267.188117 C343.081281,264.854784 340.081281,263.021451 339.247947,263.021451 C338.247947,263.021451 333.914614,259.521451 329.414614,255.354784 C319.081281,245.688117 316.081281,236.854784 316.081281,215.521451 C316.081281,196.021451 323.581281,166.854784 332.914614,149.188117 C333.914614,147.521451 336.247947,143.021451 338.247947,139.188117 C349.747947,116.521451 367.414614,94.854784 389.081281,76.354784 C398.581281,68.354784 399.747947,67.6881174 411.081281,64.6881174 C417.914614,62.854784 431.581281,56.854784 450.247947,47.6881174 C453.914614,45.854784 458.081281,42.854784 459.747947,41.1881174 C461.414614,39.1881174 464.581281,38.0214507 468.414614,38.0214507 C471.581281,38.0214507 474.581281,37.354784 475.081281,36.6881174 C476.081281,34.854784 488.081281,35.5214507 491.747947,37.5214507 C496.247947,40.0214507 493.247947,44.1881174 483.081281,50.0214507 C477.914614,52.854784 474.747947,55.6881174 475.914614,56.0214507 C477.081281,56.354784 478.914614,55.854784 479.914614,54.854784 C480.914614,53.854784 482.747947,53.0214507 483.914614,53.0214507 C487.081281,53.0214507 486.581281,57.5214507 483.247947,58.6881174 C477.914614,60.5214507 463.747947,69.354784 463.081281,71.1881174 C462.747947,72.1881174 463.581281,72.5214507 465.081281,72.0214507 C466.747947,71.354784 467.747947,71.854784 467.747947,73.5214507 C467.747947,78.0214507 472.914614,78.1881174 478.747947,73.854784 C481.914614,71.5214507 484.414614,68.854784 484.414614,67.854784 C484.414614,67.0214507 486.581281,66.354784 489.414614,66.354784 C492.581281,66.354784 494.914614,65.1881174 496.081281,63.0214507 C497.914614,59.5214507 512.414614,51.854784 518.914614,50.854784 C520.747947,50.5214507 523.581281,49.354784 525.081281,48.1881174 C526.414614,47.0214507 528.581281,46.6881174 529.747947,47.354784 C530.914614,48.1881174 533.914614,48.5214507 536.414614,48.1881174 C540.414614,47.854784 540.914614,48.354784 540.747947,52.5214507 C540.581281,56.854784 538.414614,58.854784 521.414614,69.854784 C510.914614,76.6881174 499.081281,84.6881174 495.081281,87.6881174 C491.247947,90.5214507 486.414614,93.0214507 484.581281,93.0214507 C482.581281,93.0214507 481.081281,93.854784 481.081281,94.6881174 C481.081281,95.6881174 480.081281,96.354784 478.747947,96.354784 C477.581281,96.354784 474.414614,98.0214507 471.747947,100.021451 C469.247947,102.021451 466.081281,103.854784 464.747947,104.188117 C461.747947,104.521451 447.414614,119.854784 441.581281,128.854784 C439.247947,132.521451 435.581281,137.521451 433.581281,140.021451 C431.414614,142.521451 426.581281,150.854784 422.747947,158.688117 C418.914614,166.521451 415.081281,173.021451 414.247947,173.021451 C413.414614,173.021451 412.747947,174.854784 412.747947,177.188117 C412.747947,181.354784 409.581281,183.854784 405.914614,182.688117 C404.581281,182.188117 404.581281,181.354784 406.247947,179.688117 C407.581281,178.354784 410.414614,171.521451 412.581281,164.688117 C414.914614,157.854784 418.414614,149.854784 420.581281,147.021451 C422.747947,144.188117 424.414614,141.354784 424.414614,140.688117 C424.414614,140.188117 427.081281,135.854784 430.414614,131.188117 C433.581281,126.521451 435.914614,122.188117 435.247947,121.688117 C434.081281,120.521451 430.914614,124.188117 421.581281,138.021451 C418.081281,143.021451 414.747947,147.354784 414.081281,147.688117 C413.247947,148.021451 412.747947,149.188117 412.747947,150.354784 C412.747947,151.521451 411.247947,153.854784 409.414614,155.521451 C407.581281,157.188117 406.581281,159.188117 407.081281,160.021451 C408.081281,161.521451 403.747947,172.854784 398.414614,183.354784 C395.581281,188.688117 392.914614,208.854784 392.581281,226.521451 C392.414614,242.688117 393.914614,244.688117 406.581281,244.688117 C411.747947,244.688117 416.081281,245.354784 416.414614,246.188117 C416.914614,247.854784 420.747947,247.188117 441.914614,242.188117 C463.747947,237.021451 467.414614,236.521451 482.247947,237.021451 C496.247947,237.521451 505.081281,240.021451 516.914614,246.688117 C518.747947,247.854784 522.081281,249.521451 524.581281,250.854784 C526.914614,252.021451 530.581281,254.854784 532.747947,257.188117 C535.747947,260.354784 538.247947,261.354784 543.914614,261.354784 C549.414614,261.354784 552.247947,262.354784 555.247947,265.521451 C560.081281,270.188117 560.914614,275.688117 556.747947,274.021451 C555.247947,273.521451 552.247947,272.521451 550.081281,272.021451 C546.414614,271.021451 546.081281,271.521451 546.081281,276.521451 C546.081281,287.854784 536.414614,312.354784 528.414614,321.521451 C527.081281,322.854784 526.081281,325.021451 526.081281,326.021451 C526.081281,327.188117 525.414614,328.021451 524.581281,328.021451 C523.747947,328.021451 522.581281,329.354784 521.914614,331.021451 C520.247947,336.854784 493.747947,362.688117 486.914614,365.688117 C479.747947,368.688117 479.747947,368.688117 455.247947,392.688117 C446.081281,401.688117 434.747947,411.521451 430.247947,414.688117 C425.581281,417.854784 421.581281,421.021451 421.414614,421.688117 C420.581281,423.688117 409.581281,428.021451 405.247947,428.021451 C403.081281,428.021451 401.081281,429.021451 400.581281,430.354784 C399.414614,433.188117 379.581281,443.021451 374.747947,443.021451 C372.914614,443.021451 370.747947,443.854784 370.247947,444.688117 C369.747947,445.688117 367.914614,446.354784 366.414614,446.354784 C364.914614,446.354784 361.581281,447.354784 359.081281,448.688117 C356.747947,450.021451 352.081281,451.854784 348.747947,453.021451 C345.414614,454.021451 342.747947,455.688117 342.747947,456.521451 C342.747947,457.354784 340.747947,458.021451 338.414614,458.021451 C335.081281,458.021451 334.414614,458.688117 335.247947,461.188117 C336.581281,465.354784 331.747947,467.188117 329.581281,463.354784 C327.914614,460.688117 327.914614,460.688117 327.747947,463.521451 C327.747947,465.021451 326.414614,466.354784 324.914614,466.354784 C319.414614,466.521451 310.247947,472.188117 310.747947,475.021451 C310.914614,476.688117 309.414614,478.354784 306.581281,479.354784 C303.914614,480.354784 300.081281,482.354784 298.081281,484.188117 C295.914614,485.854784 292.081281,488.688117 289.747947,490.688117 C287.247947,492.688117 283.081281,495.354784 280.247947,496.854784 C277.581281,498.188117 273.747947,501.188117 271.914614,503.354784 C270.081281,505.521451 266.581281,508.688117 264.247947,510.521451 C262.081281,512.354784 259.247947,516.188117 258.081281,518.854784 C255.414614,525.688117 253.914614,562.521451 256.247947,564.021451 C257.581281,564.688117 257.414614,565.521451 256.081281,566.354784 C253.914614,567.688117 252.081281,616.354784 254.247947,616.354784 C256.581281,616.354784 253.081281,650.021451 250.247947,654.688117 C247.914614,658.521451 246.081281,656.021451 246.081281,648.854784 C246.081281,643.354784 245.414614,641.354784 243.581281,641.354784 C241.747947,641.354784 241.081281,639.354784 241.081281,633.854784 C241.081281,629.688117 240.247947,626.354784 239.247947,626.354784 C238.081281,626.354784 237.914614,632.854784 238.581281,646.521451 C240.081281,673.521451 235.747947,704.354784 232.247947,691.354784 C230.414614,684.188117 227.747947,688.188117 227.747947,698.521451 C227.747947,710.854784 226.414614,716.354784 223.747947,716.354784 C220.747947,716.354784 214.414614,723.688117 214.414614,727.021451 C214.414614,733.854784 198.581281,757.188117 183.914614,772.021451 C179.581281,776.354784 176.247947,780.521451 176.914614,781.021451 C177.414614,781.521451 178.747947,781.021451 179.747947,780.021451 C182.247947,777.521451 187.247947,777.354784 188.581281,779.688117 C190.081281,782.188117 187.914614,788.021451 185.581281,788.021451 C184.414614,788.021451 180.581281,790.021451 176.914614,792.521451 C170.414614,797.021451 156.747947,801.021451 146.914614,801.188117 C144.247947,801.354784 138.247947,803.188117 133.581281,805.354784 C129.081281,807.521451 122.581281,810.021451 119.247947,811.188117 C113.414614,813.021451 84.0812808,813.854784 82.4146141,812.188117 Z M105.914614,767.854784 C109.581281,766.188117 113.081281,764.021451 113.581281,763.021451 C114.081281,762.188117 116.081281,761.354784 117.914614,761.354784 C119.581281,761.354784 121.081281,760.688117 121.081281,759.688117 C121.081281,758.854784 122.747947,757.688117 124.914614,757.188117 C131.581281,755.521451 164.414614,719.521451 169.247947,708.521451 C170.247947,706.521451 172.914614,701.688117 175.581281,697.688117 C181.581281,688.354784 191.081281,669.354784 191.081281,666.854784 C191.081281,665.854784 192.081281,664.521451 193.247947,664.021451 C194.247947,663.521451 193.247947,663.521451 190.747947,664.021451 C185.581281,665.188117 184.581281,662.354784 187.914614,656.188117 C190.414614,651.354784 189.747947,624.354784 186.914614,619.688117 C186.247947,618.688117 185.414614,599.188117 184.914614,576.688117 C184.581281,554.021451 183.914614,532.521451 183.581281,528.854784 C183.414614,525.188117 183.081281,521.188117 182.914614,520.021451 C182.414614,514.021451 157.414614,536.854784 137.247947,561.688117 C130.247947,570.188117 123.081281,578.854784 121.081281,581.021451 C119.247947,583.021451 117.747947,585.354784 117.747947,586.021451 C117.747947,586.688117 116.247947,589.021451 114.414614,591.354784 C112.581281,593.688117 111.081281,596.354784 111.081281,597.354784 C111.081281,598.521451 108.081281,604.354784 104.414614,610.354784 C100.747947,616.354784 97.7479475,621.854784 97.7479475,622.521451 C97.7479475,623.188117 96.4146141,626.688117 94.5812808,630.354784 C90.7479475,639.021451 85.2479475,658.854784 82.7479475,673.521451 C81.0812808,682.688117 80.2479475,684.688117 77.5812808,684.688117 C74.9146141,684.688117 74.5812808,683.854784 75.4146141,680.188117 C76.0812808,677.854784 76.7479475,674.188117 76.9146141,672.354784 C77.4146141,666.521451 79.7479475,661.354784 81.5812808,661.354784 C82.9146141,661.354784 82.7479475,660.688117 81.5812808,659.521451 C79.4146141,657.354784 80.4146141,649.521451 83.9146141,643.021451 C85.0812808,640.688117 86.0812808,637.854784 86.0812808,636.688117 C86.0812808,635.521451 86.7479475,633.354784 87.5812808,631.688117 C88.2479475,630.188117 90.2479475,625.854784 91.7479475,622.188117 C93.4146141,618.521451 95.7479475,613.354784 97.0812808,610.854784 C98.4146141,608.188117 99.4146141,605.354784 99.4146141,604.521451 C99.4146141,603.688117 102.081281,599.021451 105.247947,594.188117 C108.414614,589.521451 111.081281,584.688117 111.081281,583.521451 C111.081281,582.521451 111.581281,581.354784 112.414614,581.021451 C113.081281,580.854784 116.081281,576.854784 119.247947,572.188117 C122.414614,567.688117 126.914614,562.021451 129.081281,559.688117 C134.581281,554.021451 136.414614,550.188117 134.414614,548.854784 C133.581281,548.354784 132.747947,548.521451 132.747947,549.521451 C132.747947,550.354784 128.414614,556.188117 123.081281,562.521451 C117.914614,568.688117 112.581281,575.854784 111.247947,578.188117 C110.081281,580.521451 107.247947,584.688117 105.081281,587.188117 C102.914614,589.688117 101.081281,592.521451 101.081281,593.521451 C101.081281,594.354784 98.9146141,597.854784 96.4146141,601.188117 C93.7479475,604.521451 90.4146141,609.854784 88.9146141,613.021451 C87.2479475,616.188117 85.4146141,620.021451 84.5812808,621.354784 C83.7479475,622.688117 81.4146141,629.521451 79.4146141,636.354784 C77.2479475,643.188117 74.9146141,649.521451 74.0812808,650.354784 C73.4146141,651.354784 72.7479475,654.521451 72.7479475,657.521451 C72.7479475,660.688117 71.7479475,665.188117 70.4146141,667.688117 C69.2479475,670.188117 67.5812808,677.021451 66.9146141,683.021451 C66.2479475,689.021451 64.9146141,694.854784 63.9146141,696.021451 C60.7479475,700.021451 62.2479475,738.021451 65.9146141,747.188117 C66.7479475,749.021451 68.4146141,753.854784 69.7479475,758.021451 C71.7479475,764.188117 73.4146141,766.188117 79.5812808,769.354784 C87.9146141,773.521451 94.9146141,773.188117 105.914614,767.854784 Z" id="Shape"></path>
                    <path d="M169.414614,86.1881174 C165.247947,83.5214507 159.747947,80.5214507 157.081281,79.354784 C151.414614,77.0214507 144.414614,70.854784 144.414614,68.1881174 C144.414614,67.1881174 143.581281,66.354784 142.581281,66.354784 C140.247947,66.354784 131.081281,56.1881174 131.081281,53.5214507 C131.081281,49.0214507 135.081281,49.6881174 140.747947,55.1881174 L146.914614,61.1881174 L146.414614,53.6881174 C145.581281,44.6881174 148.247947,37.6881174 153.914614,33.5214507 C156.247947,31.854784 159.081281,29.6881174 160.081281,28.6881174 C163.747947,25.1881174 172.581281,21.354784 176.914614,21.354784 C179.247947,21.354784 181.581281,20.1881174 182.247947,18.6881174 C182.914614,17.0214507 184.414614,16.354784 186.747947,17.0214507 C189.247947,17.6881174 191.081281,16.854784 192.581281,14.354784 C194.414614,11.354784 195.914614,11.0214507 204.414614,11.6881174 C211.914614,12.1881174 213.914614,11.854784 213.247947,10.1881174 C212.747947,9.02145069 212.914614,6.02145069 213.414614,3.68811735 C214.581281,-0.811882646 215.414614,-0.978549313 227.581281,2.02145069 C232.414614,3.18811735 239.414614,7.52145069 239.414614,9.68811735 C239.414614,10.354784 238.414614,12.1881174 237.081281,13.354784 C234.081281,16.5214507 232.081281,22.854784 232.581281,28.0214507 C232.747947,30.354784 231.747947,33.6881174 230.581281,35.5214507 C228.914614,37.6881174 228.581281,39.854784 229.581281,42.5214507 C230.414614,44.854784 230.414614,48.0214507 229.414614,50.6881174 C228.414614,53.0214507 227.414614,57.854784 226.914614,61.5214507 C226.414614,65.854784 224.081281,70.6881174 220.747947,74.6881174 C214.081281,82.6881174 204.414614,85.5214507 185.414614,85.0214507 C173.581281,84.6881174 172.414614,85.0214507 175.414614,87.0214507 C181.581281,91.5214507 176.914614,90.854784 169.414614,86.1881174 Z" id="Path"></path>
                </g>
                <path d="M1303.83333,765.333333 C1301.83333,763.5 1302.5,759.833333 1304.83333,759.666667 C1305.83333,759.666667 1311.16667,753 1316.5,744.666667 C1325.16667,731.333333 1331,726.166667 1331,732 C1330.83333,736.166667 1324.66667,747.666667 1320.66667,750.833333 C1318.5,752.5 1315.16667,756.333333 1313.5,759 C1309,766 1306.16667,767.833333 1303.83333,765.333333 Z" id="Path"></path>
                <path d="M713.5,514.833333 C712.166667,512.666667 722.333333,506.5 727.333333,506.5 C733.166667,506.5 731.666667,508.833333 723.5,512.833333 C714.833333,517 714.833333,517 713.5,514.833333 Z" id="Path"></path>
                <path d="M779.666667,492.833333 C780.666667,490 800.666667,479.5 802.666667,480.666667 C806.166667,482.833333 804,485 793.5,489.833333 C781.5,495.333333 778.666667,495.833333 779.666667,492.833333 Z" id="Path"></path>
            </g>
        </g>
    </g>
</svg>