<?xml version="1.0" encoding="UTF-8"?>
<svg  viewBox="0 0 1400 100" xmlns="http://www.w3.org/2000/svg" xmlns:xlink="http://www.w3.org/1999/xlink">
    <g transform="translate(700.000000, 50.000000) scale(1, -1) translate(-700.000000, -50.000000) " >
        <path fill="var(--primary, black)" d="M0,1.98019802 L0,70.5297053 C77.7777778,103.936523 155.555556,108.941466 233.333333,85.5445366 C311.111111,62.1476069 388.888889,59.9399351 466.666667,78.9215215 C544.444444,97.9031078 622.222222,98.1936609 700,79.7931806 C777.777778,61.3927003 855.555556,60.7196953 933.333333,77.7741656 C1011.11111,94.8286359 1088.88889,93.0552906 1166.66667,72.4541298 C1244.44444,51.8529689 1322.22222,51.1676595 1400,70.3982014 L1400,1.98019802 L0,1.98019802 Z" opacity="0.5"></path>
        <path fill="var(--accent, white)" d="M0,1.98019802 L0,72.0316683 C77.7777778,97.5289011 155.555556,97.4412891 233.333333,71.7688323 C311.111111,46.0963754 388.888889,44.2003843 466.666667,66.080859 C544.444444,87.9613337 622.222222,91.2015392 700,75.8014755 C777.777778,60.4014118 855.555556,56.7973551 933.333333,64.9893054 C1011.11111,73.1812556 1088.88889,72.6558643 1166.66667,63.4131314 C1244.44444,54.1703986 1322.22222,56.0904242 1400,69.1732083 L1400,1.98019802 L0,1.98019802 Z" opacity="0.5"></path>
        <path fill="var(--primary, black)" d="M0,0 L0,38.5028742 C77.7777778,66.5094803 155.555556,68.8083255 233.333333,45.3994099 C311.111111,21.9904943 388.888889,19.1902787 466.666667,36.998763 C544.444444,54.8072474 622.222222,58.5429636 700,48.2059117 C777.777778,37.8688598 855.555556,39.5906541 933.333333,53.3712946 C1011.11111,67.1519351 1088.88889,62.8589798 1166.66667,40.4924286 C1244.44444,18.1258775 1322.22222,20.1722895 1400,46.6316645 L1400,0 L0,0 Z"></path>
    </g>
</svg>